<svg width="80" height="80" viewBox="0 0 80 80" fill="none" xmlns="http://www.w3.org/2000/svg">
<path fill-rule="evenodd" clip-rule="evenodd" d="M40 8.75C22.7411 8.75 8.75 22.7411 8.75 40V68.75C8.75 70.1307 9.8693 71.25 11.25 71.25C14.3168 71.25 16.91 70.6247 19.0701 69.4073C19.4582 69.1887 19.8275 68.9537 20.1788 68.704C24.6673 74.8837 31.9396 78.8087 39.9987 78.8087C48.917 78.8087 56.8717 74.0023 61.1567 66.653C62.857 68.2207 64.9857 69.6617 67.631 70.9857C68.406 71.3737 69.3267 71.3323 70.064 70.877C70.8013 70.4213 71.25 69.6167 71.25 68.75V40C71.25 22.7411 57.259 8.75 40 8.75ZM57.723 62.4237C57.2357 61.588 56.8253 60.7227 56.4837 59.8267C55.1593 56.3563 54.9427 52.5873 54.9073 48.8217C50.5887 48.698 46.6973 48.1677 43.2853 46.389C39.5127 44.422 36.636 41.1073 34.2243 35.999C33.3255 36.172 32.647 36.4947 32.1086 36.8927C31.2668 37.515 30.5596 38.477 29.9645 39.872C28.8493 42.4867 28.3767 45.9413 27.8298 49.939C27.7642 50.4187 27.6974 50.9063 27.6284 51.4013C27.0209 55.758 26.2276 60.679 23.9746 64.4923C23.8789 64.6543 23.7804 64.8147 23.679 64.9733C27.1884 70.3463 33.2466 73.8087 39.9987 73.8087C47.7667 73.8087 54.6163 69.2263 57.723 62.4237ZM13.75 40C13.75 25.5025 25.5025 13.75 40 13.75C54.4973 13.75 66.25 25.5025 66.25 40V64.3603C63.4663 62.359 61.9967 60.2493 61.155 58.044C59.9317 54.838 59.9007 51.153 59.9007 46.354C59.9007 45.691 59.6373 45.055 59.1683 44.5863C58.6997 44.1173 58.0637 43.854 57.4007 43.854C52.1277 43.854 48.484 43.4603 45.597 41.9553C42.8213 40.5083 40.3863 37.83 38.087 32.3889C37.696 31.4634 36.789 30.8619 35.7843 30.8619C33.1589 30.8619 30.9398 31.5384 29.1359 32.8723C27.3605 34.185 26.1854 35.988 25.3654 37.9103C23.9651 41.1933 23.3985 45.3847 22.8776 49.2377C22.8103 49.735 22.7438 50.227 22.6764 50.7107C22.0502 55.201 21.3371 59.127 19.6698 61.949C18.8721 63.299 17.8857 64.3357 16.6157 65.0513C15.8398 65.4883 14.9017 65.8377 13.75 66.0437V40Z" fill="#1C1C1E"/>
</svg>
