<svg width="340" height="340" viewBox="0 0 340 340" fill="none" xmlns="http://www.w3.org/2000/svg">
<g clip-path="url(#clip0_207_682)">
<path d="M5.82863 87.489C11.783 44.1069 44.1069 10.9324 87.489 5.82863C142.222 -1.94288 197.778 -1.94288 252.511 5.82863C295.893 11.783 329.068 44.1069 334.171 87.489C341.943 142.222 341.943 197.778 334.171 252.511C328.217 295.893 295.893 329.068 252.511 334.171C197.778 341.943 142.222 341.943 87.489 334.171C44.1069 328.217 10.9324 295.893 5.82863 252.511C-1.94288 197.778 -1.94288 142.222 5.82863 87.489Z" fill="#AF52DE"/>
<rect width="256" height="256" transform="translate(42 42)" fill="#AF52DE"/>
<path fill-rule="evenodd" clip-rule="evenodd" d="M124.667 122C124.667 96.9632 144.963 76.6667 170 76.6667C195.037 76.6667 215.333 96.9632 215.333 122C215.333 147.037 195.037 167.333 170 167.333C144.963 167.333 124.667 147.037 124.667 122ZM170 92.6667C153.8 92.6667 140.667 105.8 140.667 122C140.667 138.2 153.8 151.333 170 151.333C186.201 151.333 199.333 138.2 199.333 122C199.333 105.8 186.201 92.6667 170 92.6667Z" fill="white"/>
<path fill-rule="evenodd" clip-rule="evenodd" d="M71.3333 213.958C71.3333 188.922 91.6297 168.625 116.667 168.625C141.703 168.625 162 188.922 162 213.958C162 238.995 141.703 259.292 116.667 259.292C91.6297 259.292 71.3333 238.995 71.3333 213.958ZM116.667 184.625C100.466 184.625 87.3333 197.758 87.3333 213.958C87.3333 230.159 100.466 243.292 116.667 243.292C132.867 243.292 146 230.159 146 213.958C146 197.758 132.867 184.625 116.667 184.625Z" fill="white"/>
<path fill-rule="evenodd" clip-rule="evenodd" d="M223.333 168.625C198.297 168.625 178 188.922 178 213.958C178 238.995 198.297 259.292 223.333 259.292C248.37 259.292 268.667 238.995 268.667 213.958C268.667 188.922 248.37 168.625 223.333 168.625ZM194 213.958C194 197.758 207.133 184.625 223.333 184.625C239.534 184.625 252.667 197.758 252.667 213.958C252.667 230.159 239.534 243.292 223.333 243.292C207.133 243.292 194 230.159 194 213.958Z" fill="white"/>
</g>
<defs>
<clipPath id="clip0_207_682">
<rect width="340" height="340" fill="white"/>
</clipPath>
</defs>
</svg>
