<svg width="80" height="80" viewBox="0 0 80 80" fill="none" xmlns="http://www.w3.org/2000/svg">
<path d="M49.1668 13.3334C49.1668 12.5431 48.7932 11.7994 48.1592 11.3277C47.5252 10.8559 46.7055 10.7117 45.9485 10.9388L16.1784 19.8698C13.006 20.8216 10.8335 23.7415 10.8335 27.0535V66.6667C10.8335 68.0474 11.9528 69.1667 13.3335 69.1667H37.0818C35.9328 67.637 34.9712 65.9594 34.2298 64.1667H15.8335V27.0535C15.8335 25.9495 16.5577 24.9762 17.6151 24.659L44.1668 16.6935V35.4467C45.7288 34.565 47.4048 33.861 49.1668 33.3627V13.3334Z" fill="#1C1C1E"/>
<path d="M32.4998 55.4167C32.4998 54.4267 32.5626 53.4514 32.6844 52.4944H26.6665C25.2858 52.4944 24.1665 53.6137 24.1665 54.9944C24.1665 56.3751 25.2858 57.4944 26.6665 57.4944H32.5927C32.5312 56.8101 32.4998 56.1171 32.4998 55.4167Z" fill="#1C1C1E"/>
<path d="M34.5502 45.9287C34.9278 45.0994 35.3535 44.2967 35.8235 43.5237C35.7118 42.2464 34.6395 41.2444 33.3332 41.2444H26.6665C25.2858 41.2444 24.1665 42.3637 24.1665 43.7444C24.1665 45.1251 25.2858 46.2444 26.6665 46.2444H33.3332C33.7748 46.2444 34.1898 46.1297 34.5502 45.9287Z" fill="#1C1C1E"/>
<path d="M26.6665 29.9944C25.2858 29.9944 24.1665 31.1137 24.1665 32.4944C24.1665 33.8751 25.2858 34.9944 26.6665 34.9944H33.3332C34.7138 34.9944 35.8332 33.8751 35.8332 32.4944C35.8332 31.1137 34.7138 29.9944 33.3332 29.9944H26.6665Z" fill="#1C1C1E"/>
<path d="M55.4165 47.5096C56.7972 47.5096 57.9165 48.629 57.9165 50.0096V54.1246H60.8298C62.2105 54.1246 63.3298 55.244 63.3298 56.6246C63.3298 58.0056 62.2105 59.1246 60.8298 59.1246H55.4165C54.0358 59.1246 52.9165 58.0056 52.9165 56.6246V50.0096C52.9165 48.629 54.0358 47.5096 55.4165 47.5096Z" fill="#1C1C1E"/>
<path fill-rule="evenodd" clip-rule="evenodd" d="M37.5 55.4167C37.5 45.5217 45.5217 37.5 55.4167 37.5C65.3117 37.5 73.3333 45.5217 73.3333 55.4167C73.3333 65.3117 65.3117 73.3333 55.4167 73.3333C45.5217 73.3333 37.5 65.3117 37.5 55.4167ZM55.4167 42.5C48.283 42.5 42.5 48.283 42.5 55.4167C42.5 62.5503 48.283 68.3333 55.4167 68.3333C62.5503 68.3333 68.3333 62.5503 68.3333 55.4167C68.3333 48.283 62.5503 42.5 55.4167 42.5Z" fill="#1C1C1E"/>
</svg>
