<svg width="80" height="80" viewBox="0 0 80 80" fill="none" xmlns="http://www.w3.org/2000/svg">
<path fill-rule="evenodd" clip-rule="evenodd" d="M53.5272 36.0581H66.6668C68.0475 36.0581 69.1668 37.1775 69.1668 38.5581V39.9995C69.1668 50.0555 64.0778 58.9231 56.3345 64.1668H66.6668C68.0475 64.1668 69.1668 65.2861 69.1668 66.6668C69.1668 68.0474 68.0475 69.1668 66.6668 69.1668H13.3335C11.9528 69.1668 10.8335 68.0474 10.8335 66.6668C10.8335 65.2861 11.9528 64.1668 13.3335 64.1668H23.6659C15.9226 58.9231 10.8335 50.0555 10.8335 39.9995V38.5581C10.8335 37.8951 11.0969 37.2591 11.5657 36.7904C12.0346 36.3214 12.6705 36.0581 13.3335 36.0581H47.3855L64.6315 11.8816C65.4335 10.7576 66.9945 10.4964 68.1185 11.2982C69.2428 12.1 69.5038 13.6613 68.7022 14.7853L53.5272 36.0581ZM15.8563 41.0581C16.4103 53.9138 27.008 64.1661 40.0002 64.1661C52.9925 64.1661 63.5898 53.9138 64.1442 41.0581H15.8563Z" fill="#1C1C1E"/>
<path d="M37.3661 11.4127C36.3055 12.2966 36.1621 13.873 37.0458 14.9337L37.7008 15.7198C37.9585 16.0288 37.9585 16.4777 37.7008 16.7867L36.3908 18.3589C34.5885 20.5221 34.5885 23.6641 36.3908 25.8273L37.0458 26.6134C37.9298 27.6741 39.5061 27.8175 40.5668 26.9336C41.6275 26.0498 41.7711 24.4734 40.8871 23.4126L40.2321 22.6265C39.9745 22.3175 39.9745 21.8687 40.2321 21.5596L41.5421 19.9874C43.3448 17.8243 43.3448 14.6822 41.5421 12.519L40.8871 11.733C40.0031 10.6722 38.4268 10.5288 37.3661 11.4127Z" fill="#1C1C1E"/>
<path d="M23.0127 18.2669C22.1289 17.2062 22.2723 15.6298 23.333 14.7459C24.3937 13.8621 25.9701 14.0055 26.854 15.0662L27.509 15.8523C29.3115 18.0155 29.3115 21.1575 27.509 23.3207L26.199 24.8929C25.9415 25.2019 25.9415 25.6508 26.199 25.9598L26.854 26.7459C27.7379 27.8066 27.5945 29.383 26.5337 30.2669C25.473 31.1507 23.8966 31.0074 23.0127 29.9466L22.3577 29.1605C20.5552 26.9973 20.5552 23.8553 22.3577 21.6921L23.6678 20.1199C23.9253 19.8109 23.9253 19.3621 23.6678 19.053L23.0127 18.2669Z" fill="#1C1C1E"/>
</svg>
