<svg width="340" height="340" viewBox="0 0 340 340" fill="none" xmlns="http://www.w3.org/2000/svg">
<g clip-path="url(#clip0_207_739)">
<path d="M5.82863 87.489C11.783 44.1069 44.1069 10.9324 87.489 5.82863C142.222 -1.94288 197.778 -1.94288 252.511 5.82863C295.893 11.783 329.068 44.1069 334.171 87.489C341.943 142.222 341.943 197.778 334.171 252.511C328.217 295.893 295.893 329.068 252.511 334.171C197.778 341.943 142.222 341.943 87.489 334.171C44.1069 328.217 10.9324 295.893 5.82863 252.511C-1.94288 197.778 -1.94288 142.222 5.82863 87.489Z" fill="#1C1C1E"/>
<rect width="256" height="256" transform="translate(42 42)" fill="#1C1C1E"/>
<path fill-rule="evenodd" clip-rule="evenodd" d="M121.74 113.68H104.745C92.0204 113.68 81.7051 123.995 81.7051 136.72V241.68C81.7051 254.404 92.0204 264.72 104.745 264.72H238.035C250.76 264.72 261.075 254.404 261.075 241.68V136.72C261.075 123.995 250.76 113.68 238.035 113.68H221.04C223.655 109.162 225.15 103.916 225.15 98.3201C225.15 81.354 211.396 67.6001 194.43 67.6001C185.255 67.6001 177.019 71.6226 171.39 78.0001C165.761 71.6226 157.526 67.6001 148.35 67.6001C131.384 67.6001 117.63 81.354 117.63 98.3201C117.63 103.916 119.126 109.162 121.74 113.68ZM194.43 82.9601C185.947 82.9601 179.07 89.837 179.07 98.3201V113.68H194.43C202.914 113.68 209.79 106.803 209.79 98.3201C209.79 89.837 202.914 82.9601 194.43 82.9601ZM179.07 152.08V129.04H238.035C242.276 129.04 245.715 132.479 245.715 136.72V152.08H179.07ZM163.71 152.08V129.04H104.745C100.504 129.04 97.0651 132.479 97.0651 136.72V152.08H163.71ZM97.0651 167.44H163.71V249.36H104.745C100.504 249.36 97.0651 245.922 97.0651 241.68V167.44ZM179.07 167.44H245.715V241.68C245.715 245.922 242.276 249.36 238.035 249.36H179.07V167.44ZM148.35 113.68H163.71V98.3201C163.71 89.837 156.834 82.9601 148.35 82.9601C139.867 82.9601 132.99 89.837 132.99 98.3201C132.99 106.803 139.867 113.68 148.35 113.68Z" fill="white"/>
</g>
<defs>
<clipPath id="clip0_207_739">
<rect width="340" height="340" fill="white"/>
</clipPath>
</defs>
</svg>
