<svg width="340" height="340" viewBox="0 0 340 340" fill="none" xmlns="http://www.w3.org/2000/svg">
<g clip-path="url(#clip0_207_741)">
<path d="M5.82863 87.489C11.783 44.1069 44.1069 10.9324 87.489 5.82863C142.222 -1.94288 197.778 -1.94288 252.511 5.82863C295.893 11.783 329.068 44.1069 334.171 87.489C341.943 142.222 341.943 197.778 334.171 252.511C328.217 295.893 295.893 329.068 252.511 334.171C197.778 341.943 142.222 341.943 87.489 334.171C44.1069 328.217 10.9324 295.893 5.82863 252.511C-1.94288 197.778 -1.94288 142.222 5.82863 87.489Z" fill="#1C1C1E"/>
<rect width="256" height="256" transform="translate(42 42)" fill="#1C1C1E"/>
<path fill-rule="evenodd" clip-rule="evenodd" d="M170 70C114.772 70 70 114.772 70 170V262C70 266.418 73.5818 270 78 270C87.8138 270 96.112 267.999 103.024 264.103C104.266 263.404 105.448 262.652 106.572 261.853C120.935 281.628 144.207 294.188 169.996 294.188C198.534 294.188 223.989 278.807 237.701 255.29C243.142 260.306 249.954 264.917 258.419 269.154C260.899 270.396 263.845 270.263 266.205 268.806C268.564 267.348 270 264.773 270 262V170C270 114.772 225.229 70 170 70ZM226.714 241.756C225.154 239.082 223.841 236.313 222.748 233.445C218.51 222.34 217.817 210.279 217.703 198.229C203.884 197.834 191.431 196.137 180.513 190.445C168.441 184.15 159.235 173.543 151.518 157.197C148.641 157.75 146.47 158.783 144.748 160.057C142.054 162.048 139.791 165.126 137.886 169.59C134.318 177.957 132.805 189.012 131.055 201.805C130.845 203.34 130.632 204.9 130.411 206.484C128.467 220.426 125.928 236.173 118.719 248.375C118.412 248.894 118.097 249.407 117.773 249.915C129.003 267.108 148.389 278.188 169.996 278.188C194.853 278.188 216.772 263.524 226.714 241.756ZM86 170C86 123.608 123.608 86 170 86C216.391 86 254 123.608 254 170V247.953C245.092 241.549 240.389 234.798 237.696 227.741C233.781 217.482 233.682 205.69 233.682 190.333C233.682 188.211 232.839 186.176 231.339 184.676C229.839 183.175 227.804 182.333 225.682 182.333C208.809 182.333 197.149 181.073 187.91 176.257C179.028 171.627 171.236 163.056 163.878 145.644C162.627 142.683 159.725 140.758 156.51 140.758C148.108 140.758 141.007 142.923 135.235 147.191C129.554 151.392 125.793 157.162 123.169 163.313C118.688 173.819 116.875 187.231 115.208 199.561C114.993 201.152 114.78 202.726 114.564 204.274C112.561 218.643 110.279 231.206 104.943 240.237C102.391 244.557 99.2342 247.874 95.1702 250.164C92.6875 251.563 89.6853 252.681 86 253.34V170Z" fill="white"/>
</g>
<defs>
<clipPath id="clip0_207_741">
<rect width="340" height="340" fill="white"/>
</clipPath>
</defs>
</svg>
