<svg width="340" height="340" viewBox="0 0 340 340" fill="none" xmlns="http://www.w3.org/2000/svg">
<g clip-path="url(#clip0_207_785)">
<path d="M5.82863 87.489C11.783 44.1069 44.1069 10.9324 87.489 5.82863C142.222 -1.94288 197.778 -1.94288 252.511 5.82863C295.893 11.783 329.068 44.1069 334.171 87.489C341.943 142.222 341.943 197.778 334.171 252.511C328.217 295.893 295.893 329.068 252.511 334.171C197.778 341.943 142.222 341.943 87.489 334.171C44.1069 328.217 10.9324 295.893 5.82863 252.511C-1.94288 197.778 -1.94288 142.222 5.82863 87.489Z" fill="#E6E8EC"/>
<path d="M114 63.3334H173.605C167.895 67.8933 162.882 73.2883 158.75 79.3334H114C109.582 79.3334 106 82.9151 106 87.3334V252.667C106 257.085 109.582 260.667 114 260.667H199.333C203.751 260.667 207.333 257.085 207.333 252.667V193.023C211.238 193.666 215.247 194 219.333 194C220.675 194 222.009 193.964 223.333 193.892V252.667C223.333 265.921 212.588 276.667 199.333 276.667H114C100.745 276.667 90 265.921 90 252.667V87.3334C90 74.0785 100.745 63.3334 114 63.3334Z" fill="#64646D"/>
<path d="M146 228.667C141.582 228.667 138 232.248 138 236.667C138 241.085 141.582 244.667 146 244.667H167.333C171.751 244.667 175.333 241.085 175.333 236.667C175.333 232.248 171.751 228.667 167.333 228.667H146Z" fill="#64646D"/>
<path d="M268.667 163.653C264.249 163.653 260.667 160.071 260.667 155.653V85.6797C260.667 81.2614 264.249 77.6797 268.667 77.6797C273.085 77.6797 276.667 81.2614 276.667 85.6797V155.653C276.667 160.071 273.085 163.653 268.667 163.653Z" fill="#64646D"/>
<path d="M227.781 155.653C227.781 160.071 231.363 163.653 235.781 163.653C240.199 163.653 243.781 160.071 243.781 155.653V106.672C243.781 102.254 240.199 98.6725 235.781 98.6725C231.363 98.6725 227.781 102.254 227.781 106.672V155.653Z" fill="#64646D"/>
<path d="M202.89 163.653C198.472 163.653 194.89 160.071 194.89 155.653V127.665C194.89 123.246 198.472 119.665 202.89 119.665C207.308 119.665 210.89 123.246 210.89 127.665V155.653C210.89 160.071 207.308 163.653 202.89 163.653Z" fill="#64646D"/>
<path d="M170 163.653C165.582 163.653 162 160.071 162 155.653V148.657C162 144.239 165.582 140.657 170 140.657C174.418 140.657 178 144.239 178 148.657V155.653C178 160.071 174.418 163.653 170 163.653Z" fill="#64646D"/>
</g>
<defs>
<clipPath id="clip0_207_785">
<rect width="340" height="340" fill="white"/>
</clipPath>
</defs>
</svg>
