<svg width="340" height="340" viewBox="0 0 340 340" fill="none" xmlns="http://www.w3.org/2000/svg">
<g clip-path="url(#clip0_207_670)">
<path d="M5.82863 87.489C11.783 44.1069 44.1069 10.9324 87.489 5.82863C142.222 -1.94288 197.778 -1.94288 252.511 5.82863C295.893 11.783 329.068 44.1069 334.171 87.489C341.943 142.222 341.943 197.778 334.171 252.511C328.217 295.893 295.893 329.068 252.511 334.171C197.778 341.943 142.222 341.943 87.489 334.171C44.1069 328.217 10.9324 295.893 5.82863 252.511C-1.94288 197.778 -1.94288 142.222 5.82863 87.489Z" fill="#FF9500"/>
<rect width="256" height="256" transform="translate(42 42)" fill="#FF9500"/>
<path fill-rule="evenodd" clip-rule="evenodd" d="M132.667 82C101.739 82 76.6666 107.072 76.6666 138V153.828C68.7641 157.756 63.3333 165.91 63.3333 175.333C63.3333 184.756 68.7641 192.911 76.6666 196.838V234C76.6666 247.254 87.4118 258 100.667 258H239.333C252.588 258 263.333 247.254 263.333 234V196.838C271.236 192.911 276.667 184.756 276.667 175.333C276.667 165.91 271.236 157.756 263.333 153.828V138C263.333 107.072 238.261 82 207.333 82H132.667ZM252.667 167.333H87.3333C82.915 167.333 79.3333 170.915 79.3333 175.333C79.3333 179.751 82.915 183.333 87.3333 183.333H155.469C161.748 183.333 167.778 185.794 172.263 190.189L187.395 205.011C190.819 208.365 196.403 207.977 199.329 204.18L208.193 192.682C212.737 186.786 219.759 183.333 227.202 183.333H252.667C257.085 183.333 260.667 179.751 260.667 175.333C260.667 170.915 257.085 167.333 252.667 167.333ZM247.333 151.333V138C247.333 115.909 229.425 98 207.333 98H132.667C110.575 98 92.6666 115.909 92.6666 138V151.333H247.333ZM227.202 199.333H247.333V234C247.333 238.418 243.751 242 239.333 242H100.667C96.2483 242 92.6666 238.418 92.6666 234V199.333H155.469C157.563 199.333 159.572 200.154 161.068 201.618L176.198 216.441C186.47 226.502 203.223 225.337 212.001 213.949L220.866 202.449C222.381 200.484 224.721 199.333 227.202 199.333Z" fill="white"/>
</g>
<defs>
<clipPath id="clip0_207_670">
<rect width="340" height="340" fill="white"/>
</clipPath>
</defs>
</svg>
