<svg width="340" height="340" viewBox="0 0 340 340" fill="none" xmlns="http://www.w3.org/2000/svg">
<g clip-path="url(#clip0_207_678)">
<path d="M5.82863 87.489C11.783 44.1069 44.1069 10.9324 87.489 5.82863C142.222 -1.94288 197.778 -1.94288 252.511 5.82863C295.893 11.783 329.068 44.1069 334.171 87.489C341.943 142.222 341.943 197.778 334.171 252.511C328.217 295.893 295.893 329.068 252.511 334.171C197.778 341.943 142.222 341.943 87.489 334.171C44.1069 328.217 10.9324 295.893 5.82863 252.511C-1.94288 197.778 -1.94288 142.222 5.82863 87.489Z" fill="#007AFF"/>
<rect width="256" height="256" transform="translate(42 42)" fill="#007AFF"/>
<path d="M141.23 124.549C145.648 124.549 149.23 128.131 149.23 132.549V143.258H159.949C164.367 143.258 167.949 146.839 167.949 151.258C167.949 155.676 164.367 159.258 159.949 159.258H149.23V169.998C149.23 174.416 145.648 177.998 141.23 177.998C136.811 177.998 133.23 174.416 133.23 169.998V159.258H122.5C118.082 159.258 114.5 155.676 114.5 151.258C114.5 146.839 118.082 143.258 122.5 143.258H133.23V132.549C133.23 128.131 136.811 124.549 141.23 124.549Z" fill="white"/>
<path d="M196.438 167.289C196.438 162.87 200.019 159.289 204.438 159.289H213.801C218.219 159.289 221.801 162.87 221.801 167.289C221.801 171.707 218.219 175.289 213.801 175.289H204.438C200.019 175.289 196.438 171.707 196.438 167.289Z" fill="white"/>
<path d="M204.438 127.216C200.019 127.216 196.438 130.797 196.438 135.216C196.438 139.634 200.019 143.216 204.438 143.216H213.801C218.219 143.216 221.801 139.634 221.801 135.216C221.801 130.797 218.219 127.216 213.801 127.216H204.438Z" fill="white"/>
<path fill-rule="evenodd" clip-rule="evenodd" d="M110.288 95.5248C149.731 88.2277 190.179 88.2277 229.623 95.5248L246.323 98.6144C256.651 100.525 264.535 108.928 265.787 119.355L278.237 223.138C279.95 237.424 268.796 249.997 254.407 249.997H232.039C223.713 249.997 215.982 245.681 211.611 238.594L196.32 213.797C194.863 211.435 192.286 209.997 189.51 209.997H150.4C147.625 209.997 145.048 211.435 143.591 213.797L128.3 238.594C123.929 245.681 116.198 249.997 107.871 249.997H85.5033C71.1151 249.997 59.9603 237.424 61.6741 223.138L74.1242 119.355C75.3752 108.928 83.2605 100.525 93.5874 98.6144L110.288 95.5248ZM226.713 111.258C189.193 104.317 150.718 104.317 113.198 111.258L96.498 114.347C93.0557 114.984 90.4273 117.785 90.0102 121.261L77.5602 225.043C76.989 229.806 80.7072 233.997 85.5033 233.997H107.871C110.647 233.997 113.224 232.558 114.681 230.195L129.972 205.399C134.342 198.311 142.074 193.997 150.4 193.997H189.51C197.837 193.997 205.568 198.311 209.938 205.399L225.23 230.195C226.687 232.558 229.264 233.997 232.039 233.997H254.407C259.203 233.997 262.922 229.806 262.35 225.043L249.901 121.261C249.484 117.785 246.854 114.984 243.412 114.347L226.713 111.258Z" fill="white"/>
</g>
<defs>
<clipPath id="clip0_207_678">
<rect width="340" height="340" fill="white"/>
</clipPath>
</defs>
</svg>
