<svg width="340" height="340" viewBox="0 0 340 340" fill="none" xmlns="http://www.w3.org/2000/svg">
<g clip-path="url(#clip0_207_731)">
<path d="M5.82863 87.489C11.783 44.1069 44.1069 10.9324 87.489 5.82863C142.222 -1.94288 197.778 -1.94288 252.511 5.82863C295.893 11.783 329.068 44.1069 334.171 87.489C341.943 142.222 341.943 197.778 334.171 252.511C328.217 295.893 295.893 329.068 252.511 334.171C197.778 341.943 142.222 341.943 87.489 334.171C44.1069 328.217 10.9324 295.893 5.82863 252.511C-1.94288 197.778 -1.94288 142.222 5.82863 87.489Z" fill="#1C1C1E"/>
<rect width="256" height="256" transform="translate(42 42)" fill="#1C1C1E"/>
<path fill-rule="evenodd" clip-rule="evenodd" d="M75.2801 143.12H99.0166C102.628 162.782 119.854 177.68 140.56 177.68H178.909C182.398 177.68 185.448 180.031 186.336 183.405L200.519 237.303C203.183 247.426 212.334 254.48 222.801 254.48H237.115C252.222 254.48 263.241 240.186 259.396 225.577L248.264 183.276C247.52 180.448 249.654 177.68 252.579 177.68C263.526 177.68 272.4 168.806 272.4 157.858V116.24C272.4 103.515 262.084 93.2 249.36 93.2H140.56C119.854 93.2 102.628 108.098 99.0166 127.76H75.2801C71.0386 127.76 67.6001 131.198 67.6001 135.44C67.6001 139.681 71.0386 143.12 75.2801 143.12ZM140.56 108.56C125.715 108.56 113.68 120.595 113.68 135.44C113.68 150.285 125.715 162.32 140.56 162.32H144.4V108.56H140.56ZM159.76 108.56V162.32H178.909C189.375 162.32 198.527 169.374 201.19 179.497L215.374 233.395C216.261 236.769 219.312 239.12 222.801 239.12H237.115C242.15 239.12 245.823 234.355 244.542 229.485L233.41 187.186C230.103 174.617 239.583 162.32 252.579 162.32C255.043 162.32 257.04 160.323 257.04 157.858V116.24C257.04 111.998 253.602 108.56 249.36 108.56H159.76Z" fill="white"/>
</g>
<defs>
<clipPath id="clip0_207_731">
<rect width="340" height="340" fill="white"/>
</clipPath>
</defs>
</svg>
