<svg width="80" height="80" viewBox="0 0 80 80" fill="none" xmlns="http://www.w3.org/2000/svg">
<path d="M50.3999 42.3982C52.6092 42.3982 54.3999 44.1889 54.3999 46.3982C54.3999 48.6075 52.6092 50.3985 50.3999 50.3985C48.1906 50.3985 46.3999 48.6078 46.3999 46.3985C46.3999 44.1892 48.1906 42.3982 50.3999 42.3982Z" fill="#1C1C1E"/>
<path fill-rule="evenodd" clip-rule="evenodd" d="M11.2002 25.6643C11.2002 22.1447 13.7448 19.1409 17.2165 18.5623L50.8165 12.9623C55.205 12.2309 59.2002 15.6152 59.2002 20.0643V24.7981H60.0002C63.9765 24.7981 67.2002 28.0217 67.2002 31.9981V60.7981C67.2002 64.7744 63.9765 67.9981 60.0002 67.9981H18.4002C14.4237 67.9981 11.2002 64.7744 11.2002 60.7981V25.6643ZM51.6056 17.697C53.0684 17.4532 54.4002 18.5813 54.4002 20.0643V24.7981H16.1616C16.4605 24.0265 17.1482 23.4399 18.0056 23.297L51.6056 17.697ZM16.0002 29.5981V60.7981C16.0002 62.1236 17.0747 63.1981 18.4002 63.1981H60.0002C61.3256 63.1981 62.4002 62.1236 62.4002 60.7981V31.9981C62.4002 30.6726 61.3256 29.5981 60.0002 29.5981H16.0002Z" fill="#1C1C1E"/>
</svg>
