<svg width="80" height="80" viewBox="0 0 80 80" fill="none" xmlns="http://www.w3.org/2000/svg">
<path fill-rule="evenodd" clip-rule="evenodd" d="M28.3332 12.5C18.6682 12.5 10.8332 20.335 10.8332 30V34.9463C8.36364 36.1737 6.6665 38.722 6.6665 41.6667C6.6665 44.6113 8.36364 47.1597 10.8332 48.387V60C10.8332 64.142 14.191 67.5 18.3332 67.5H61.6665C65.8085 67.5 69.1665 64.142 69.1665 60V48.387C71.6362 47.1597 73.3332 44.6113 73.3332 41.6667C73.3332 38.722 71.6362 36.1737 69.1665 34.9463V30C69.1665 20.335 61.3315 12.5 51.6665 12.5H28.3332ZM65.8332 39.1667H14.1665C12.7858 39.1667 11.6665 40.286 11.6665 41.6667C11.6665 43.0473 12.7858 44.1667 14.1665 44.1667H35.4588C37.4212 44.1667 39.3055 44.9357 40.7072 46.309L45.4358 50.941C46.5058 51.989 48.2508 51.8677 49.1652 50.6813L51.9352 47.088C53.3552 45.2457 55.5495 44.1667 57.8755 44.1667H65.8332C67.2138 44.1667 68.3332 43.0473 68.3332 41.6667C68.3332 40.286 67.2138 39.1667 65.8332 39.1667ZM64.1665 34.1667V30C64.1665 23.0964 58.5702 17.5 51.6665 17.5H28.3332C21.4296 17.5 15.8332 23.0964 15.8332 30V34.1667H64.1665ZM57.8755 49.1667H64.1665V60C64.1665 61.3807 63.0472 62.5 61.6665 62.5H18.3332C16.9525 62.5 15.8332 61.3807 15.8332 60V49.1667H35.4588C36.1132 49.1667 36.7412 49.423 37.2085 49.8807L41.9368 54.5127C45.1468 57.657 50.3822 57.2927 53.1252 53.734L55.8955 50.1403C56.3688 49.5263 57.1002 49.1667 57.8755 49.1667Z" fill="#1C1C1E"/>
</svg>
