<svg width="340" height="340" viewBox="0 0 340 340" fill="none" xmlns="http://www.w3.org/2000/svg">
<g clip-path="url(#clip0_207_787)">
<path d="M5.82863 87.489C11.783 44.1069 44.1069 10.9324 87.489 5.82863C142.222 -1.94288 197.778 -1.94288 252.511 5.82863C295.893 11.783 329.068 44.1069 334.171 87.489C341.943 142.222 341.943 197.778 334.171 252.511C328.217 295.893 295.893 329.068 252.511 334.171C197.778 341.943 142.222 341.943 87.489 334.171C44.1069 328.217 10.9324 295.893 5.82863 252.511C-1.94288 197.778 -1.94288 142.222 5.82863 87.489Z" fill="#E6E8EC"/>
<path d="M165.2 94.3031C168.045 92.1698 171.955 92.1698 174.8 94.3031L244.133 146.303C245.822 147.57 246.928 149.441 247.242 151.497C253.012 153.873 258.413 156.964 263.333 160.66V152.703C263.333 145.149 259.777 138.036 253.733 133.503L184.4 81.5031C175.867 75.1031 164.133 75.1031 155.6 81.5031L86.2667 133.503C80.2234 138.036 76.6667 145.149 76.6667 152.703V239.331C76.6667 252.587 87.4119 263.331 100.667 263.331H160.661C156.985 258.437 153.906 253.068 151.535 247.331H100.667C96.2485 247.331 92.6667 243.75 92.6667 239.331V152.703C92.6667 150.186 93.8523 147.814 95.8667 146.303L165.2 94.3031Z" fill="#64646D"/>
<path d="M262.95 210.428C238.862 186.339 199.805 186.339 175.716 210.428C172.592 213.552 167.526 213.552 164.402 210.428C161.278 207.303 161.278 202.239 164.402 199.115C194.74 168.777 243.926 168.777 274.264 199.115C277.389 202.239 277.389 207.303 274.264 210.428C271.14 213.552 266.075 213.552 262.95 210.428Z" fill="#64646D"/>
<path d="M210.792 254.299C210.792 249.586 214.612 245.765 219.325 245.765C224.037 245.765 227.869 249.586 227.869 254.299C227.869 259.011 224.048 262.832 219.336 262.832C214.623 262.832 210.792 259.011 210.792 254.299Z" fill="#64646D"/>
<path d="M199.059 235.064C210.566 224.717 228.096 224.717 239.602 235.064C242.887 238.019 247.946 237.75 250.9 234.465C253.855 231.18 253.586 226.122 250.301 223.168C232.711 207.349 205.951 207.349 188.361 223.168C185.076 226.122 184.807 231.18 187.762 234.465C190.716 237.75 195.774 238.019 199.059 235.064Z" fill="#64646D"/>
</g>
<defs>
<clipPath id="clip0_207_787">
<rect width="340" height="340" fill="white"/>
</clipPath>
</defs>
</svg>
