<svg width="340" height="340" viewBox="0 0 340 340" fill="none" xmlns="http://www.w3.org/2000/svg">
<g clip-path="url(#clip0_207_676)">
<path d="M5.82863 87.489C11.783 44.1069 44.1069 10.9324 87.489 5.82863C142.222 -1.94288 197.778 -1.94288 252.511 5.82863C295.893 11.783 329.068 44.1069 334.171 87.489C341.943 142.222 341.943 197.778 334.171 252.511C328.217 295.893 295.893 329.068 252.511 334.171C197.778 341.943 142.222 341.943 87.489 334.171C44.1069 328.217 10.9324 295.893 5.82863 252.511C-1.94288 197.778 -1.94288 142.222 5.82863 87.489Z" fill="#32ADE6"/>
<rect width="256" height="256" transform="translate(42 42)" fill="#32ADE6"/>
<path fill-rule="evenodd" clip-rule="evenodd" d="M178.028 71.3333H189.733C190.859 71.3333 191.971 71.5706 192.998 72.0297L218.477 83.4187C222.511 85.2218 227.242 83.4136 229.045 79.38C230.848 75.3464 229.04 70.6147 225.006 68.8117L199.528 57.4226C196.447 56.0453 193.109 55.3333 189.733 55.3333H148.705C144.286 55.3333 140.705 58.915 140.705 63.3333C140.705 67.7515 144.286 71.3333 148.705 71.3333H162.028V97.9999H118.834C105.116 97.9999 94.189 109.478 94.8628 123.179L101.289 253.845C101.918 266.627 112.463 276.667 125.26 276.667H214.796C227.591 276.667 238.137 266.627 238.766 253.845L245.192 123.179C245.867 109.478 234.94 97.9999 221.221 97.9999H178.028V71.3333ZM118.834 114C114.261 114 110.619 117.826 110.844 122.393L117.27 253.059C117.479 257.32 120.995 260.667 125.26 260.667H214.796C219.06 260.667 222.576 257.32 222.786 253.059L229.212 122.393C229.437 117.826 225.794 114 221.221 114H118.834Z" fill="white"/>
</g>
<defs>
<clipPath id="clip0_207_676">
<rect width="340" height="340" fill="white"/>
</clipPath>
</defs>
</svg>
