<svg width="340" height="340" viewBox="0 0 340 340" fill="none" xmlns="http://www.w3.org/2000/svg">
<g clip-path="url(#clip0_207_672)">
<path d="M5.82863 87.489C11.783 44.1069 44.1069 10.9324 87.489 5.82863C142.222 -1.94288 197.778 -1.94288 252.511 5.82863C295.893 11.783 329.068 44.1069 334.171 87.489C341.943 142.222 341.943 197.778 334.171 252.511C328.217 295.893 295.893 329.068 252.511 334.171C197.778 341.943 142.222 341.943 87.489 334.171C44.1069 328.217 10.9324 295.893 5.82863 252.511C-1.94288 197.778 -1.94288 142.222 5.82863 87.489Z" fill="#FFCC00"/>
<rect width="256" height="256" transform="translate(42 42)" fill="#FFCC00"/>
<path fill-rule="evenodd" clip-rule="evenodd" d="M213.286 157.386H255.333C259.752 157.386 263.333 160.967 263.333 165.386V169.998C263.333 202.177 247.049 230.554 222.27 247.333H255.333C259.752 247.333 263.333 250.915 263.333 255.333C263.333 259.751 259.752 263.333 255.333 263.333H84.6667C80.2485 263.333 76.6667 259.751 76.6667 255.333C76.6667 250.915 80.2485 247.333 84.6667 247.333H117.731C92.952 230.554 76.6667 202.177 76.6667 169.998V165.386C76.6667 163.264 77.5096 161.229 79.0099 159.729C80.5102 158.228 82.545 157.386 84.6667 157.386H193.633L248.82 80.0208C251.387 76.4239 256.382 75.588 259.979 78.1539C263.577 80.7197 264.412 85.7156 261.846 89.3125L213.286 157.386ZM92.7396 173.386C94.5126 214.524 128.425 247.331 170 247.331C211.576 247.331 245.487 214.524 247.261 173.386H92.7396Z" fill="white"/>
<path d="M161.572 78.5207C158.178 81.3491 157.719 86.3935 160.547 89.7879L162.643 92.3034C163.468 93.2923 163.468 94.7286 162.643 95.7175L158.451 100.749C152.684 107.671 152.684 117.725 158.451 124.647L160.547 127.163C163.376 130.557 168.42 131.016 171.814 128.188C175.208 125.359 175.668 120.315 172.839 116.92L170.743 114.405C169.919 113.416 169.919 111.98 170.743 110.991L174.935 105.96C180.704 99.0377 180.704 88.9832 174.935 82.061L172.839 79.5455C170.011 76.1512 164.966 75.6923 161.572 78.5207Z" fill="white"/>
<path d="M115.641 100.454C112.813 97.06 113.272 92.0156 116.666 89.1872C120.06 86.3588 125.105 86.8177 127.933 90.212L130.029 92.7275C135.797 99.6497 135.797 109.704 130.029 116.626L125.837 121.657C125.013 122.646 125.013 124.083 125.837 125.071L127.933 127.587C130.762 130.981 130.303 136.026 126.908 138.854C123.514 141.683 118.47 141.224 115.641 137.829L113.545 135.314C107.777 128.392 107.777 118.337 113.545 111.415L117.737 106.384C118.561 105.395 118.561 103.959 117.737 102.97L115.641 100.454Z" fill="white"/>
</g>
<defs>
<clipPath id="clip0_207_672">
<rect width="340" height="340" fill="white"/>
</clipPath>
</defs>
</svg>
