<svg width="80" height="80" viewBox="0 0 80 80" fill="none" xmlns="http://www.w3.org/2000/svg">
<path fill-rule="evenodd" clip-rule="evenodd" d="M19.4623 8.48348C20.8234 7.31142 22.56 6.66675 24.3562 6.66675H30.1384C31.3595 6.66675 32.4019 7.54885 32.6039 8.75311C33.1987 12.2983 36.2863 15.0001 40 15.0001C43.714 15.0001 46.8017 12.2983 47.3963 8.75311C47.5983 7.54885 48.6407 6.66675 49.862 6.66675H55.644C57.4403 6.66675 59.1767 7.31142 60.538 8.48348L74.1313 20.189C75.0243 20.9579 75.259 22.246 74.695 23.2805L68.445 34.7387C68.124 35.3271 67.5803 35.7621 66.936 35.9457C66.2917 36.1297 65.6007 36.0471 65.0177 35.7167L62.5 34.2901V65.8334C62.5 69.9754 59.1423 73.3334 55 73.3334H25.0001C20.858 73.3334 17.5001 69.9754 17.5001 65.8334V34.2901L14.9827 35.7167C14.3997 36.0471 13.7085 36.1297 13.0642 35.9457C12.4198 35.7621 11.8762 35.3271 11.5554 34.7387L5.30537 23.2805C4.7411 22.246 4.97587 20.9579 5.8688 20.189L19.4623 8.48348ZM24.3562 11.6667C23.7575 11.6667 23.1786 11.8816 22.7249 12.2723L10.6622 22.6597L14.7282 30.114L18.7676 27.825C19.5415 27.3864 20.4902 27.3922 21.2588 27.8401C22.0274 28.2879 22.5001 29.1105 22.5001 30.0001V65.8334C22.5001 67.2141 23.6194 68.3334 25.0001 68.3334H55C56.381 68.3334 57.5 67.2141 57.5 65.8334V30.0001C57.5 29.1105 57.9727 28.2879 58.7413 27.8401C59.51 27.3922 60.4587 27.3864 61.2327 27.825L65.272 30.114L69.338 22.6597L57.2753 12.2723C56.8217 11.8816 56.2427 11.6667 55.644 11.6667H51.788C50.0717 16.522 45.444 20.0001 40 20.0001C34.5563 20.0001 29.9285 16.522 28.2121 11.6667H24.3562Z" fill="#1C1C1E"/>
</svg>
