<svg width="80" height="80" viewBox="0 0 80 80" fill="none" xmlns="http://www.w3.org/2000/svg">
<path d="M15.2 20.0046C11.2236 20.0046 8 23.2282 8 27.2047V54.4048C8 58.3811 11.2236 61.6048 15.2 61.6048H33.6282C33.1931 60.0665 32.9212 58.4598 32.8322 56.8048H15.2C13.8745 56.8048 12.8 55.7302 12.8 54.4048V27.2047C12.8 25.8792 13.8745 24.8046 15.2 24.8046H64.8C66.1254 24.8046 67.2 25.8792 67.2 27.2046V37.4297C69.0134 38.6694 70.632 40.1734 72 41.886V27.2046C72 23.2282 68.7763 20.0046 64.8 20.0046H15.2Z" fill="#1C1C1E"/>
<path d="M40.0005 30.9968C43.1394 30.9968 45.934 32.4713 47.7292 34.7657C46.1173 35.3126 44.5893 36.0409 43.1695 36.927C42.3061 36.2204 41.2028 35.7968 40.0005 35.7968C37.2344 35.7968 34.9925 38.039 34.9925 40.8048C34.9925 42.0073 35.4162 43.1107 36.1224 43.974C35.2367 45.3936 34.508 46.9216 33.9612 48.5337C31.667 46.7385 30.1924 43.944 30.1924 40.8048C30.1924 35.3881 34.5836 30.9968 40.0005 30.9968Z" fill="#1C1C1E"/>
<path d="M18.603 40.8048C18.603 39.2141 19.8924 37.9248 21.483 37.9248C23.0736 37.9248 24.3633 39.2141 24.3633 40.8048C24.3633 42.3952 23.0739 43.6848 21.4833 43.6848C19.8928 43.6848 18.603 42.3952 18.603 40.8048Z" fill="#1C1C1E"/>
<path d="M56.7432 48.1716C57.6398 48.5428 58.2248 49.418 58.2248 50.3889V60.8209C58.2248 62.1463 57.1502 63.2209 55.8248 63.2209C54.4994 63.2209 53.4248 62.1463 53.4248 60.8209V55.9918C52.532 56.4206 51.4286 56.2647 50.6888 55.5249C49.7515 54.5876 49.7515 53.0679 50.6888 52.1307L54.1275 48.6916C54.8139 48.0052 55.8462 47.8001 56.7432 48.1716Z" fill="#1C1C1E"/>
<path fill-rule="evenodd" clip-rule="evenodd" d="M37.6001 55.6048C37.6001 46.1053 45.3009 38.4048 54.8001 38.4048C64.2993 38.4048 72.0001 46.1053 72.0001 55.6048C72.0001 65.104 64.2993 72.8048 54.8001 72.8048C45.3009 72.8048 37.6001 65.104 37.6001 55.6048ZM54.8001 43.2048C47.9518 43.2048 42.4001 48.7565 42.4001 55.6048C42.4001 62.4531 47.9518 68.0048 54.8001 68.0048C61.6484 68.0048 67.2001 62.4531 67.2001 55.6048C67.2001 48.7565 61.6484 43.2048 54.8001 43.2048Z" fill="#1C1C1E"/>
</svg>
