<svg width="80" height="80" viewBox="0 0 80 80" fill="none" xmlns="http://www.w3.org/2000/svg">
<path d="M31.0091 25.7966C32.3898 25.7966 33.5092 26.9159 33.5092 28.2966V31.643H36.8589C38.2396 31.643 39.3589 32.7623 39.3589 34.143C39.3589 35.5237 38.2396 36.643 36.8589 36.643H33.5092V39.9993C33.5092 41.38 32.3898 42.4993 31.0091 42.4993C29.6284 42.4993 28.5091 41.38 28.5091 39.9993V36.643H25.1563C23.7756 36.643 22.6562 35.5237 22.6562 34.143C22.6562 32.7623 23.7756 31.643 25.1563 31.643H28.5091V28.2966C28.5091 26.9159 29.6284 25.7966 31.0091 25.7966Z" fill="#1C1C1E"/>
<path d="M48.2622 39.1526C48.2622 37.7719 49.3812 36.6526 50.7622 36.6526H53.6879C55.0685 36.6526 56.1879 37.7719 56.1879 39.1526C56.1879 40.5333 55.0685 41.6526 53.6879 41.6526H50.7622C49.3812 41.6526 48.2622 40.5333 48.2622 39.1526Z" fill="#1C1C1E"/>
<path d="M50.7622 26.6299C49.3812 26.6299 48.2622 27.7491 48.2622 29.1299C48.2622 30.5106 49.3812 31.6299 50.7622 31.6299H53.6879C55.0685 31.6299 56.1879 30.5106 56.1879 29.1299C56.1879 27.7491 55.0685 26.6299 53.6879 26.6299H50.7622Z" fill="#1C1C1E"/>
<path fill-rule="evenodd" clip-rule="evenodd" d="M21.3399 16.7266C33.666 14.4463 46.306 14.4463 58.6323 16.7266L63.851 17.6921C67.0783 18.2891 69.5423 20.9151 69.9333 24.1736L73.824 56.6057C74.3593 61.0701 70.8737 64.9991 66.3773 64.9991H59.3873C56.7853 64.9991 54.3693 63.6504 53.0033 61.4357L48.225 53.6867C47.7697 52.9484 46.9643 52.4991 46.097 52.4991H33.875C33.0077 52.4991 32.2024 52.9484 31.7471 53.6867L26.9686 61.4357C25.6029 63.6504 23.1868 64.9991 20.5848 64.9991H13.5948C9.09847 64.9991 5.6126 61.0701 6.14817 56.6057L10.0388 24.1736C10.4297 20.9151 12.8939 18.2891 16.1211 17.6921L21.3399 16.7266ZM57.7227 21.6432C45.9977 19.4741 33.9743 19.4741 22.2494 21.6432L17.0306 22.6087C15.9549 22.8077 15.1335 23.683 15.0032 24.7692L11.1126 57.2011C10.9341 58.6894 12.096 59.9991 13.5948 59.9991H20.5848C21.4522 59.9991 22.2575 59.5494 22.7128 58.8111L27.4913 51.0624C28.857 48.8474 31.2731 47.4991 33.875 47.4991H46.097C48.699 47.4991 51.115 48.8474 52.4807 51.0624L57.2593 58.8111C57.7147 59.5494 58.52 59.9991 59.3873 59.9991H66.3773C67.876 59.9991 69.038 58.6894 68.8593 57.2011L64.969 24.7692C64.8387 23.683 64.017 22.8077 62.9413 22.6087L57.7227 21.6432Z" fill="#1C1C1E"/>
</svg>
