<svg width="340" height="340" viewBox="0 0 340 340" fill="none" xmlns="http://www.w3.org/2000/svg">
<g clip-path="url(#clip0_207_674)">
<path d="M5.82863 87.489C11.783 44.1069 44.1069 10.9324 87.489 5.82863C142.222 -1.94288 197.778 -1.94288 252.511 5.82863C295.893 11.783 329.068 44.1069 334.171 87.489C341.943 142.222 341.943 197.778 334.171 252.511C328.217 295.893 295.893 329.068 252.511 334.171C197.778 341.943 142.222 341.943 87.489 334.171C44.1069 328.217 10.9324 295.893 5.82863 252.511C-1.94288 197.778 -1.94288 142.222 5.82863 87.489Z" fill="#34C759"/>
<rect width="256" height="256" transform="translate(42 42)" fill="#34C759"/>
<path fill-rule="evenodd" clip-rule="evenodd" d="M251.444 213.682H252.667C265.921 213.682 276.667 202.938 276.667 189.682V176.613C276.667 165.289 268.75 155.504 257.674 153.141L235.288 148.366L204.244 115.252C199.707 110.413 193.368 107.667 186.735 107.667H127.083C119.18 107.667 111.783 111.558 107.306 118.07L91.0053 141.78L74.5175 152.194C67.555 156.591 63.3333 164.251 63.3333 172.485V189.682C63.3333 202.938 74.0784 213.682 87.3333 213.682H88.5557C91.9553 224.498 102.061 232.344 114 232.344C125.938 232.344 136.045 224.498 139.444 213.682H200.556C203.955 224.498 214.062 232.344 226 232.344C237.938 232.344 248.045 224.498 251.444 213.682ZM127.083 123.667C124.449 123.667 121.983 124.964 120.491 127.134L109.683 142.855L124.708 146.858C126.724 147.395 128.8 147.667 130.886 147.667H148.167V123.667H127.083ZM164.166 123.667V147.667H212.701L192.572 126.195C191.059 124.582 188.946 123.667 186.735 123.667H164.166ZM230.323 163.666H130.886C127.41 163.666 123.949 163.214 120.589 162.319L97.9839 156.297L83.0614 165.722C80.7405 167.187 79.3333 169.741 79.3333 172.485V189.682C79.3333 194.1 82.915 197.682 87.3333 197.682H88.5524C91.9488 186.861 102.058 179.01 114 179.01C125.942 179.01 136.051 186.861 139.447 197.682H200.552C203.949 186.861 214.058 179.01 226 179.01C237.942 179.01 248.051 186.861 251.447 197.682H252.667C257.085 197.682 260.667 194.1 260.667 189.682V176.613C260.667 172.838 258.028 169.577 254.336 168.789L230.323 163.666ZM236.667 205.677C236.667 199.786 231.891 195.01 226 195.01C220.109 195.01 215.333 199.786 215.333 205.677C215.333 211.568 220.109 216.344 226 216.344C231.891 216.344 236.667 211.568 236.667 205.677ZM114 195.01C108.109 195.01 103.333 199.786 103.333 205.677C103.333 211.568 108.109 216.344 114 216.344C119.891 216.344 124.667 211.568 124.667 205.677C124.667 199.786 119.891 195.01 114 195.01Z" fill="white"/>
</g>
<defs>
<clipPath id="clip0_207_674">
<rect width="340" height="340" fill="white"/>
</clipPath>
</defs>
</svg>
