<svg width="340" height="340" viewBox="0 0 340 340" fill="none" xmlns="http://www.w3.org/2000/svg">
<g clip-path="url(#clip0_207_719)">
<path d="M5.82863 87.489C11.783 44.1069 44.1069 10.9324 87.489 5.82863C142.222 -1.94288 197.778 -1.94288 252.511 5.82863C295.893 11.783 329.068 44.1069 334.171 87.489C341.943 142.222 341.943 197.778 334.171 252.511C328.217 295.893 295.893 329.068 252.511 334.171C197.778 341.943 142.222 341.943 87.489 334.171C44.1069 328.217 10.9324 295.893 5.82863 252.511C-1.94288 197.778 -1.94288 142.222 5.82863 87.489Z" fill="#1C1C1E"/>
<rect width="256" height="256" transform="translate(42 42)" fill="#1C1C1E"/>
<path d="M234.054 137.536C234.054 132.607 231.232 127.923 226.154 123.692C232.779 122.662 238.65 121.182 243.466 119.398C248.278 117.616 251.636 115.677 253.65 113.913C254.635 113.052 255.153 112.359 255.408 111.897C255.641 111.474 255.642 111.276 255.642 111.231C255.642 111.186 255.641 110.987 255.408 110.564C255.153 110.103 254.635 109.409 253.65 108.548C251.636 106.784 248.278 104.845 243.466 103.063C233.901 99.5204 220.173 97.1749 204.636 97.1749C189.097 97.1749 175.371 99.5204 165.806 103.063C164.712 103.468 163.694 103.881 162.75 104.298C156.066 103.727 149.106 103.425 141.954 103.425C141.388 103.425 140.823 103.427 140.259 103.431C141.59 100.927 143.466 98.7743 145.502 96.9923C149.426 93.5555 154.662 90.8104 160.471 88.6594C172.145 84.3352 187.761 81.8149 204.636 81.8149C221.509 81.8149 237.125 84.3352 248.801 88.6594C254.608 90.8104 259.845 93.5555 263.77 96.9923C267.679 100.416 271.002 105.206 271.002 111.231V149.535H249.08C251.024 148.513 252.54 147.488 253.65 146.517C254.635 145.655 255.153 144.962 255.408 144.5C255.641 144.078 255.642 143.879 255.642 143.834V130.831C253.493 131.927 251.195 132.915 248.801 133.802C244.398 135.433 239.434 136.807 234.054 137.886V137.536Z" fill="white"/>
<path d="M141.84 262.175C142.696 262.175 143.55 262.17 144.4 262.159V246.798C143.551 246.809 142.698 246.815 141.84 246.815C123.421 246.815 107.086 244.037 95.6321 239.796C89.8758 237.664 85.7539 235.309 83.2113 233.082C80.6536 230.843 80.4 229.407 80.4 228.895V211.303C83.4152 212.992 86.7528 214.487 90.2974 215.799C103.861 220.823 122.085 223.775 141.84 223.775C142.696 223.775 143.55 223.77 144.4 223.759V208.398C143.551 208.409 142.698 208.415 141.84 208.415C123.421 208.415 107.086 205.637 95.6321 201.396C89.8758 199.264 85.7539 196.909 83.2113 194.682C80.6536 192.443 80.4 191.007 80.4 190.495V172.903C83.4152 174.592 86.7528 176.087 90.2974 177.399C103.861 182.423 122.085 185.375 141.84 185.375C142.696 185.375 143.55 185.37 144.4 185.359V169.998C143.551 170.009 142.698 170.015 141.84 170.015C123.421 170.015 107.086 167.237 95.6321 162.996C89.8758 160.864 85.7539 158.509 83.2113 156.282C80.6536 154.043 80.4 152.607 80.4 152.095C80.4 151.584 80.6536 150.149 83.2113 147.909C85.7539 145.682 89.8758 143.328 95.6321 141.196C107.086 136.954 123.421 134.176 141.84 134.176C160.259 134.176 176.595 136.954 188.048 141.196C193.804 143.328 197.927 145.682 200.469 147.909C201.155 148.509 201.675 149.053 202.07 149.535H218.454C217.66 144.147 214.432 139.72 210.587 136.353C206.135 132.454 200.134 129.293 193.383 126.792C179.819 121.768 161.595 118.816 141.84 118.816C122.085 118.816 103.861 121.768 90.2974 126.792C83.5456 129.293 77.5451 132.454 73.0924 136.353C68.6548 140.239 65.04 145.538 65.04 152.095V228.895C65.04 235.453 68.6548 240.752 73.0924 244.638C77.5451 248.538 83.5456 251.699 90.2974 254.199C103.861 259.223 122.085 262.175 141.84 262.175Z" fill="white"/>
<path d="M202 219.941C202 212.871 207.73 207.141 214.8 207.141C221.87 207.141 227.601 212.871 227.601 219.941C227.601 227.009 221.871 232.741 214.801 232.741C207.731 232.741 202 227.009 202 219.941Z" fill="white"/>
<path fill-rule="evenodd" clip-rule="evenodd" d="M159.76 191.47C159.76 184.4 165.49 178.67 172.56 178.67H257.04C264.11 178.67 269.84 184.4 269.84 191.47V248.399C269.84 255.469 264.11 261.199 257.04 261.199H172.56C165.49 261.199 159.76 255.469 159.76 248.399V191.47ZM175.12 206.83V233.039C182.19 233.039 187.921 238.771 187.921 245.839H241.68C241.68 238.771 247.41 233.039 254.48 233.039V206.83C247.41 206.83 241.68 201.099 241.68 194.03H187.921C187.921 201.099 182.19 206.83 175.12 206.83Z" fill="white"/>
<path d="M234.054 137.536C234.054 132.607 231.232 127.923 226.154 123.692C232.78 122.662 238.65 121.182 243.466 119.398C248.278 117.616 251.636 115.677 253.651 113.913C254.635 113.052 255.153 112.359 255.408 111.897C255.641 111.474 255.642 111.276 255.642 111.231C255.642 111.186 255.641 110.987 255.408 110.564C255.153 110.103 254.635 109.409 253.651 108.548C251.636 106.784 248.278 104.845 243.466 103.063C233.901 99.5204 220.173 97.1749 204.636 97.1749C189.098 97.1749 175.371 99.5204 165.806 103.063C164.712 103.468 163.694 103.881 162.75 104.298C156.067 103.727 149.106 103.425 141.955 103.425C141.388 103.425 140.823 103.427 140.259 103.431C141.59 100.927 143.467 98.7743 145.502 96.9923C149.426 93.5555 154.663 90.8104 160.471 88.6594C172.145 84.3352 187.761 81.8149 204.636 81.8149C221.509 81.8149 237.125 84.3352 248.801 88.6594C254.608 90.8104 259.845 93.5555 263.77 96.9923C267.679 100.416 271.002 105.206 271.002 111.231V149.535H249.081C251.024 148.513 252.541 147.488 253.651 146.517C254.635 145.655 255.153 144.962 255.408 144.5C255.641 144.078 255.642 143.879 255.642 143.834V130.831C253.493 131.927 251.195 132.915 248.801 133.802C244.398 135.433 239.435 136.807 234.054 137.886V137.536Z" fill="white"/>
<path d="M141.84 262.175C142.696 262.175 143.55 262.17 144.4 262.159V246.798C143.551 246.809 142.698 246.815 141.84 246.815C123.421 246.815 107.086 244.037 95.6321 239.796C89.8758 237.664 85.7539 235.309 83.2113 233.082C80.6536 230.843 80.4 229.407 80.4 228.895V211.303C83.4152 212.992 86.7528 214.487 90.2974 215.799C103.861 220.823 122.085 223.775 141.84 223.775C142.696 223.775 143.55 223.77 144.4 223.759V208.398C143.551 208.409 142.698 208.415 141.84 208.415C123.421 208.415 107.086 205.637 95.6321 201.396C89.8758 199.264 85.7539 196.909 83.2113 194.682C80.6536 192.443 80.4 191.007 80.4 190.495V172.903C83.4152 174.592 86.7528 176.087 90.2974 177.399C103.861 182.423 122.085 185.375 141.84 185.375C142.696 185.375 143.55 185.37 144.4 185.359V169.998C143.551 170.009 142.698 170.015 141.84 170.015C123.421 170.015 107.086 167.237 95.6321 162.996C89.8758 160.864 85.7539 158.509 83.2113 156.282C80.6536 154.043 80.4 152.607 80.4 152.095C80.4 151.584 80.6536 150.149 83.2113 147.909C85.7539 145.682 89.8758 143.328 95.6321 141.196C107.086 136.954 123.421 134.176 141.84 134.176C160.259 134.176 176.595 136.954 188.048 141.196C193.804 143.328 197.927 145.682 200.469 147.909C201.155 148.509 201.675 149.053 202.07 149.535H218.454C217.66 144.147 214.432 139.72 210.587 136.353C206.135 132.454 200.134 129.293 193.383 126.792C179.819 121.768 161.595 118.816 141.84 118.816C122.085 118.816 103.861 121.768 90.2974 126.792C83.5456 129.293 77.5451 132.454 73.0924 136.353C68.6548 140.239 65.04 145.538 65.04 152.095V228.895C65.04 235.453 68.6548 240.752 73.0924 244.638C77.5451 248.538 83.5456 251.699 90.2974 254.199C103.861 259.223 122.085 262.175 141.84 262.175Z" fill="white"/>
<path fill-rule="evenodd" clip-rule="evenodd" d="M159.76 191.47C159.76 184.4 165.49 178.67 172.56 178.67H257.04C264.109 178.67 269.84 184.4 269.84 191.47V248.399C269.84 255.469 264.109 261.199 257.04 261.199H172.56C165.49 261.199 159.76 255.469 159.76 248.399V191.47ZM175.12 206.83V233.039C182.189 233.039 187.921 238.771 187.921 245.839H241.68C241.68 238.771 247.41 233.039 254.48 233.039V206.83C247.41 206.83 241.68 201.099 241.68 194.03H187.921C187.921 201.099 182.189 206.83 175.12 206.83Z" fill="white"/>
</g>
<defs>
<clipPath id="clip0_207_719">
<rect width="340" height="340" fill="white"/>
</clipPath>
</defs>
</svg>
