<svg width="80" height="80" viewBox="0 0 80 80" fill="none" xmlns="http://www.w3.org/2000/svg">
<path d="M60.017 29.855C60.017 28.3148 59.1351 26.8509 57.5482 25.5288C59.6186 25.2068 61.4532 24.7443 62.9582 24.1869C64.4618 23.6299 65.5114 23.0242 66.1409 22.4729C66.4484 22.2037 66.6103 21.987 66.69 21.8428C66.763 21.7106 66.7633 21.6486 66.7633 21.6346C66.7633 21.6205 66.763 21.5585 66.69 21.4263C66.6103 21.2821 66.4484 21.0654 66.1409 20.7963C65.5114 20.245 64.4618 19.6392 62.9582 19.0822C59.969 17.9751 55.6791 17.2421 50.8238 17.2421C45.9681 17.2421 41.6785 17.9751 38.6894 19.0822C38.3476 19.2087 38.0295 19.3378 37.7345 19.4681C35.6458 19.2896 33.4708 19.1953 31.2359 19.1953C31.0589 19.1953 30.8823 19.1959 30.7061 19.1971C31.1221 18.4146 31.7083 17.7419 32.3444 17.1851C33.5706 16.1111 35.2071 15.2532 37.0222 14.581C40.6705 13.2297 45.5505 12.4421 50.8238 12.4421C56.0967 12.4421 60.9767 13.2297 64.6254 14.581C66.4401 15.2532 68.0766 16.1111 69.3031 17.1851C70.5249 18.2549 71.5633 19.7519 71.5633 21.6346V33.6048H64.7127C65.3201 33.2854 65.794 32.9651 66.1409 32.6614C66.4484 32.3923 66.6103 32.1756 66.69 32.0313C66.763 31.8992 66.7633 31.8372 66.7633 31.8232V27.7597C66.0916 28.1022 65.3735 28.4109 64.6254 28.6881C63.2494 29.1977 61.6983 29.6271 60.017 29.9643V29.855Z" fill="#1C1C1E"/>
<path d="M31.2002 68.8048C31.4678 68.8048 31.7345 68.8032 32.0002 68.7997V63.9994C31.735 64.0029 31.4683 64.0048 31.2002 64.0048C25.4443 64.0048 20.3394 63.1367 16.7602 61.8112C14.9614 61.145 13.6733 60.409 12.8787 59.7133C12.0794 59.0135 12.0002 58.5648 12.0002 58.4048V52.9072C12.9424 53.4349 13.9854 53.9021 15.0931 54.3123C19.3316 55.8823 25.0268 56.8048 31.2002 56.8048C31.4678 56.8048 31.7345 56.8032 32.0002 56.7997V51.9994C31.735 52.0029 31.4683 52.0048 31.2002 52.0048C25.4443 52.0048 20.3394 51.1367 16.7602 49.8112C14.9614 49.145 13.6733 48.409 12.8787 47.7133C12.0794 47.0135 12.0002 46.5648 12.0002 46.4048V40.9072C12.9424 41.4349 13.9854 41.9021 15.0931 42.3123C19.3316 43.8823 25.0268 44.8048 31.2002 44.8048C31.4678 44.8048 31.7345 44.8032 32.0002 44.7997V39.9994C31.735 40.0029 31.4683 40.0048 31.2002 40.0048C25.4443 40.0048 20.3394 39.1367 16.7602 37.8112C14.9614 37.145 13.6733 36.409 12.8787 35.7133C12.0794 35.0135 12.0002 34.5648 12.0002 34.4048C12.0002 34.2451 12.0794 33.7965 12.8787 33.0967C13.6733 32.4007 14.9614 31.6649 16.7602 30.9986C20.3394 29.673 25.4443 28.8049 31.2002 28.8049C36.956 28.8049 42.061 29.673 45.6402 30.9986C47.4389 31.6649 48.7272 32.4007 49.5218 33.0967C49.7362 33.2842 49.8988 33.4541 50.022 33.6048H55.142C54.894 31.9211 53.8853 30.5375 52.6837 29.4853C51.2924 28.2669 49.4172 27.2789 47.3074 26.4975C43.0687 24.9276 37.3736 24.0049 31.2002 24.0049C25.0268 24.0049 19.3316 24.9276 15.0931 26.4975C12.9832 27.2789 11.108 28.2669 9.71655 29.4853C8.3298 30.6997 7.2002 32.3555 7.2002 34.4048V58.4048C7.2002 60.4541 8.3298 62.1101 9.71655 63.3245C11.108 64.5431 12.9832 65.5309 15.0931 66.3123C19.3316 67.8823 25.0268 68.8048 31.2002 68.8048Z" fill="#1C1C1E"/>
<path d="M50 55.6064C50 53.3972 51.7907 51.6064 54 51.6064C56.2093 51.6064 58.0003 53.3972 58.0003 55.6064C58.0003 57.8154 56.2096 59.6064 54.0003 59.6064C51.791 59.6064 50 57.8154 50 55.6064Z" fill="#1C1C1E"/>
<path fill-rule="evenodd" clip-rule="evenodd" d="M36.7998 46.7095C36.7998 44.5002 38.5905 42.7095 40.7998 42.7095H67.1998C69.4091 42.7095 71.1998 44.5002 71.1998 46.7095V64.4999C71.1998 66.7092 69.4091 68.4999 67.1998 68.4999H40.7998C38.5905 68.4999 36.7998 66.7092 36.7998 64.4999V46.7095ZM41.5998 51.5095V59.6999C43.8091 59.6999 45.6001 61.4909 45.6001 63.6999H62.3998C62.3998 61.4909 64.1905 59.6999 66.3998 59.6999V51.5095C64.1905 51.5095 62.3998 49.7184 62.3998 47.5095H45.6001C45.6001 49.7184 43.8091 51.5095 41.5998 51.5095Z" fill="#1C1C1E"/>
</svg>
