<svg width="340" height="340" viewBox="0 0 340 340" fill="none" xmlns="http://www.w3.org/2000/svg">
<g clip-path="url(#clip0_229_5)">
<path d="M5.82863 87.489C11.783 44.1069 44.1069 10.9324 87.489 5.82863C142.222 -1.94288 197.778 -1.94288 252.511 5.82863C295.893 11.783 329.068 44.1069 334.171 87.489C341.943 142.222 341.943 197.778 334.171 252.511C328.217 295.893 295.893 329.068 252.511 334.171C197.778 341.943 142.222 341.943 87.489 334.171C44.1069 328.217 10.9324 295.893 5.82863 252.511C-1.94288 197.778 -1.94288 142.222 5.82863 87.489Z" fill="#E6E8EC"/>
<rect width="256" height="256" transform="translate(42 42)" fill="#E6E8EC"/>
<path d="M199.333 84.6668C199.333 82.138 198.138 79.758 196.109 78.2485C194.08 76.739 191.457 76.2775 189.035 77.0042L93.7704 105.583C83.6187 108.629 76.6667 117.973 76.6667 128.571V255.333C76.6667 259.752 80.2485 263.333 84.6667 263.333H160.661C156.985 258.438 153.907 253.07 151.535 247.333H92.6667V128.571C92.6667 125.038 94.9841 121.924 98.368 120.909L183.333 95.4191V155.429C188.332 152.608 193.695 150.355 199.333 148.761V84.6668Z" fill="#64646D"/>
<path d="M146 219.333C146 216.165 146.201 213.044 146.591 209.982H127.333C122.915 209.982 119.333 213.564 119.333 217.982C119.333 222.4 122.915 225.982 127.333 225.982H146.297C146.1 223.792 146 221.574 146 219.333Z" fill="#64646D"/>
<path d="M152.561 188.972C153.77 186.318 155.132 183.749 156.636 181.276C156.278 177.188 152.847 173.982 148.667 173.982H127.333C122.915 173.982 119.333 177.564 119.333 181.982C119.333 186.4 122.915 189.982 127.333 189.982H148.667C150.08 189.982 151.408 189.615 152.561 188.972Z" fill="#64646D"/>
<path d="M127.333 137.982C122.915 137.982 119.333 141.564 119.333 145.982C119.333 150.4 122.915 153.982 127.333 153.982H148.667C153.085 153.982 156.667 150.4 156.667 145.982C156.667 141.564 153.085 137.982 148.667 137.982H127.333Z" fill="#64646D"/>
<path d="M189.667 203.001C197.031 203.001 203.001 197.031 203.001 189.667C203.001 182.303 197.031 176.334 189.667 176.334C182.303 176.334 176.334 182.303 176.334 189.667C176.334 197.031 182.303 203.001 189.667 203.001Z" fill="#64646D"/>
<path d="M178.812 248.541C175.687 251.665 175.687 256.731 178.812 259.855C181.936 262.979 187.002 262.979 190.126 259.855L259.859 190.122C262.983 186.997 262.983 181.932 259.859 178.808C256.735 175.683 251.669 175.683 248.545 178.808L178.812 248.541Z" fill="#64646D"/>
<path d="M262.333 248.999C262.333 256.364 256.364 262.333 248.999 262.333C241.636 262.333 235.666 256.364 235.666 248.999C235.666 241.636 241.636 235.666 248.999 235.666C256.364 235.666 262.333 241.636 262.333 248.999Z" fill="#64646D"/>
</g>
<defs>
<clipPath id="clip0_229_5">
<rect width="340" height="340" fill="white"/>
</clipPath>
</defs>
</svg>
