<svg width="80" height="80" viewBox="0 0 80 80" fill="none" xmlns="http://www.w3.org/2000/svg">
<path d="M31.6675 35.8336C30.2868 35.8336 29.1675 36.953 29.1675 38.3336C29.1675 39.7143 30.2868 40.8336 31.6675 40.8336H48.3341C49.7148 40.8336 50.8341 39.7143 50.8341 38.3336C50.8341 36.953 49.7148 35.8336 48.3341 35.8336H31.6675Z" fill="#1C1C1E"/>
<path fill-rule="evenodd" clip-rule="evenodd" d="M35.6017 7.11879C36.7327 7.91059 37.0077 9.46942 36.216 10.6005L27.3024 23.3335H52.699L43.7853 10.6005C42.9937 9.46942 43.2687 7.91059 44.4 7.11879C45.531 6.32699 47.0897 6.60202 47.8817 7.73316L58.8023 23.3335H64.843C69.5223 23.3335 73.059 27.5714 72.222 32.1752L67.3733 58.842C66.725 62.408 63.619 65.0003 59.9943 65.0003H20.0069C16.3822 65.0003 13.2763 62.408 12.6279 58.842L7.77939 32.1752C6.94232 27.5714 10.4791 23.3335 15.1584 23.3335H21.1991L32.1198 7.73316C32.9116 6.60202 34.4703 6.32699 35.6017 7.11879ZM57.47 28.3335C57.492 28.3338 57.5137 28.3338 57.5357 28.3335H64.843C66.4027 28.3335 67.5817 29.7461 67.3027 31.2807L62.454 57.9473C62.238 59.136 61.2027 60.0003 59.9943 60.0003H20.0069C18.7987 60.0003 17.7634 59.136 17.5472 57.9473L12.6987 31.2807C12.4197 29.7461 13.5987 28.3335 15.1584 28.3335H57.47Z" fill="#1C1C1E"/>
</svg>
