<svg width="20" height="20" viewBox="0 0 20 20" fill="none" xmlns="http://www.w3.org/2000/svg">
<path fill-rule="evenodd" clip-rule="evenodd" d="M8 0H12V2.252C13.4187 2.61833 14.7094 3.36763 15.731 4.418L18.001 3L20.001 6.5L17.727 7.92C17.9088 8.59837 18.0006 9.2977 18 10C18.0006 10.7023 17.9088 11.4016 17.727 12.08L20 13.5L18 17L15.731 15.582C14.7096 16.6322 13.4193 17.3815 12.001 17.748V20H8.001V17.748C6.58193 17.3818 5.29087 16.6325 4.269 15.582L2 17L0 13.5L2.273 12.08C2.09121 11.4016 1.99942 10.7023 2 10C2 9.28 2.095 8.584 2.273 7.92L0 6.5L2 3L4.27 4.418C5.29132 3.36779 6.58165 2.6185 8 2.252V0ZM10 13.5C10.4596 13.5 10.9148 13.4095 11.3394 13.2336C11.764 13.0577 12.1499 12.7999 12.4749 12.4749C12.7999 12.1499 13.0577 11.764 13.2336 11.3394C13.4095 10.9148 13.5 10.4596 13.5 10C13.5 9.54037 13.4095 9.08525 13.2336 8.66061C13.0577 8.23597 12.7999 7.85013 12.4749 7.52513C12.1499 7.20012 11.764 6.94231 11.3394 6.76642C10.9148 6.59053 10.4596 6.5 10 6.5C9.07174 6.5 8.1815 6.86875 7.52513 7.52513C6.86875 8.1815 6.5 9.07174 6.5 10C6.5 10.9283 6.86875 11.8185 7.52513 12.4749C8.1815 13.1313 9.07174 13.5 10 13.5Z" fill="#070709"/>
</svg>
