<svg width="80" height="80" viewBox="0 0 80 80" fill="none" xmlns="http://www.w3.org/2000/svg">
<path fill-rule="evenodd" clip-rule="evenodd" d="M42.5085 9.16675H46.1665C46.5182 9.16675 46.8658 9.24091 47.1868 9.38438L55.1488 12.9434C56.4095 13.5069 57.8878 12.9418 58.4515 11.6813C59.0148 10.4208 58.4498 8.94221 57.1892 8.37875L49.2275 4.81968C48.2645 4.38925 47.2215 4.16675 46.1665 4.16675H33.3452C31.9644 4.16675 30.8451 5.28605 30.8451 6.66675C30.8451 8.04745 31.9644 9.16675 33.3452 9.16675H37.5085V17.5001H24.0104C19.7236 17.5001 16.3089 21.0868 16.5195 25.3685L18.5277 66.2017C18.7241 70.1961 22.0197 73.3334 26.0186 73.3334H53.9985C57.9972 73.3334 61.2928 70.1961 61.4892 66.2017L63.4975 25.3685C63.7082 21.0868 60.2935 17.5001 56.0065 17.5001H42.5085V9.16675ZM24.0104 22.5001C22.5815 22.5001 21.4433 23.6957 21.5135 25.1229L23.5217 65.9561C23.5871 67.2877 24.6857 68.3334 26.0186 68.3334H53.9985C55.3312 68.3334 56.4298 67.2877 56.4955 65.9561L58.5035 25.1229C58.5738 23.6957 57.4355 22.5001 56.0065 22.5001H24.0104Z" fill="#1C1C1E"/>
</svg>
