<svg width="340" height="340" viewBox="0 0 340 340" fill="none" xmlns="http://www.w3.org/2000/svg">
<g clip-path="url(#clip0_207_645)">
<path d="M5.82863 87.489C11.783 44.1069 44.1069 10.9324 87.489 5.82863C142.222 -1.94288 197.778 -1.94288 252.511 5.82863C295.893 11.783 329.068 44.1069 334.171 87.489C341.943 142.222 341.943 197.778 334.171 252.511C328.217 295.893 295.893 329.068 252.511 334.171C197.778 341.943 142.222 341.943 87.489 334.171C44.1069 328.217 10.9324 295.893 5.82863 252.511C-1.94288 197.778 -1.94288 142.222 5.82863 87.489Z" fill="#FF3B30"/>
<rect width="256" height="256" transform="translate(42 42)" fill="#FF3B30"/>
<path d="M143.335 156.668C138.917 156.668 135.335 160.25 135.335 164.668C135.335 169.086 138.917 172.668 143.335 172.668H196.669C201.087 172.668 204.669 169.086 204.669 164.668C204.669 160.25 201.087 156.668 196.669 156.668H143.335Z" fill="white"/>
<path fill-rule="evenodd" clip-rule="evenodd" d="M155.925 64.7803C159.545 67.3141 160.425 72.3023 157.891 75.9218L129.368 116.667H210.637L182.113 75.9218C179.58 72.3023 180.46 67.3141 184.08 64.7803C187.699 62.2465 192.687 63.1266 195.221 66.7463L230.167 116.667H249.498C264.471 116.667 275.789 130.229 273.11 144.961L257.595 230.294C255.52 241.706 245.581 250.001 233.982 250.001H106.022C94.4231 250.001 84.484 241.706 82.4091 230.294L66.8941 144.961C64.2154 130.229 75.5332 116.667 90.5069 116.667H109.837L144.783 66.7463C147.317 63.1266 152.305 62.2465 155.925 64.7803ZM225.904 132.667C225.974 132.668 226.044 132.668 226.114 132.667H249.498C254.488 132.667 258.261 137.188 257.368 142.098L241.853 227.431C241.162 231.235 237.849 234.001 233.982 234.001H106.022C102.156 234.001 98.8427 231.235 98.1511 227.431L82.6359 142.098C81.7431 137.188 85.5157 132.667 90.5069 132.667H225.904Z" fill="white"/>
</g>
<defs>
<clipPath id="clip0_207_645">
<rect width="340" height="340" fill="white"/>
</clipPath>
</defs>
</svg>
