<svg width="340" height="340" viewBox="0 0 340 340" fill="none" xmlns="http://www.w3.org/2000/svg">
<g clip-path="url(#clip0_207_737)">
<path d="M5.82863 87.489C11.783 44.1069 44.1069 10.9324 87.489 5.82863C142.222 -1.94288 197.778 -1.94288 252.511 5.82863C295.893 11.783 329.068 44.1069 334.171 87.489C341.943 142.222 341.943 197.778 334.171 252.511C328.217 295.893 295.893 329.068 252.511 334.171C197.778 341.943 142.222 341.943 87.489 334.171C44.1069 328.217 10.9324 295.893 5.82863 252.511C-1.94288 197.778 -1.94288 142.222 5.82863 87.489Z" fill="#1C1C1E"/>
<rect width="256" height="256" transform="translate(42 42)" fill="#1C1C1E"/>
<path fill-rule="evenodd" clip-rule="evenodd" d="M104.279 69.1468C108.635 65.3962 114.192 63.3333 119.94 63.3333H138.443C142.35 63.3333 145.686 66.156 146.333 70.0096C148.236 81.3544 158.116 89.9999 170 89.9999C181.885 89.9999 191.765 81.3544 193.668 70.0096C194.315 66.156 197.65 63.3333 201.558 63.3333H220.061C225.809 63.3333 231.365 65.3962 235.722 69.1468L279.22 106.604C282.078 109.065 282.829 113.187 281.024 116.497L261.024 153.164C259.997 155.046 258.257 156.438 256.195 157.026C254.133 157.615 251.922 157.35 250.057 156.293L242 151.728V252.667C242 265.921 231.255 276.667 218 276.667H122C108.746 276.667 98.0004 265.921 98.0004 252.667V151.728L89.9445 156.293C88.079 157.35 85.8672 157.615 83.8053 157.026C81.7434 156.438 80.004 155.046 78.9772 153.164L58.9772 116.497C57.1715 113.187 57.9228 109.065 60.7802 106.604L104.279 69.1468ZM119.94 79.3333C118.024 79.3333 116.172 80.0209 114.72 81.2711L76.1189 114.511L89.1301 138.364L102.056 131.04C104.533 129.636 107.569 129.655 110.028 131.088C112.488 132.521 114 135.153 114 138V252.667C114 257.085 117.582 260.667 122 260.667H218C222.419 260.667 226 257.085 226 252.667V138C226 135.153 227.513 132.521 229.972 131.088C232.432 129.655 235.468 129.636 237.945 131.04L250.87 138.364L263.882 114.511L225.281 81.2711C223.829 80.0209 221.977 79.3333 220.061 79.3333H207.722C202.229 94.87 187.421 106 170 106C152.58 106 137.771 94.87 132.279 79.3333H119.94Z" fill="white"/>
</g>
<defs>
<clipPath id="clip0_207_737">
<rect width="340" height="340" fill="white"/>
</clipPath>
</defs>
</svg>
