<svg width="80" height="80" viewBox="0 0 80 80" fill="none" xmlns="http://www.w3.org/2000/svg">
<path fill-rule="evenodd" clip-rule="evenodd" d="M10.4 31.6H17.8177C18.9463 37.7443 24.3294 42.4 30.8 42.4H42.784C43.8742 42.4 44.8275 43.1347 45.105 44.1891L49.5373 61.0323C50.3696 64.1955 53.2294 66.4 56.5002 66.4H60.9734C65.6944 66.4 69.1379 61.9331 67.9363 57.3677L64.4576 44.1488C64.225 43.265 64.8918 42.4 65.8058 42.4C69.2269 42.4 72 39.6269 72 36.2058V23.2C72 19.2236 68.7763 16 64.8 16H30.8C24.3294 16 18.9463 20.6557 17.8177 26.8H10.4C9.07453 26.8 8 27.8745 8 29.2C8 30.5255 9.07453 31.6 10.4 31.6ZM30.8 20.8C26.1608 20.8 22.4 24.5608 22.4 29.2C22.4 33.839 26.1608 37.6 30.8 37.6H32V20.8H30.8ZM36.8 20.8V37.6H42.784C46.0547 37.6 48.9146 39.8045 49.7469 42.9677L54.1792 59.8109C54.4566 60.8653 55.4099 61.6 56.5002 61.6H60.9734C62.5469 61.6 63.6947 60.111 63.2944 58.5891L59.8157 45.3706C58.7821 41.4429 61.7446 37.6 65.8058 37.6C66.576 37.6 67.2 36.976 67.2 36.2058V23.2C67.2 21.8745 66.1254 20.8 64.8 20.8H36.8Z" fill="#1C1C1E"/>
</svg>
