<svg width="340" height="340" viewBox="0 0 340 340" fill="none" xmlns="http://www.w3.org/2000/svg">
<g clip-path="url(#clip0_207_680)">
<path d="M5.82863 87.489C11.783 44.1069 44.1069 10.9324 87.489 5.82863C142.222 -1.94288 197.778 -1.94288 252.511 5.82863C295.893 11.783 329.068 44.1069 334.171 87.489C341.943 142.222 341.943 197.778 334.171 252.511C328.217 295.893 295.893 329.068 252.511 334.171C197.778 341.943 142.222 341.943 87.489 334.171C44.1069 328.217 10.9324 295.893 5.82863 252.511C-1.94288 197.778 -1.94288 142.222 5.82863 87.489Z" fill="#5856D6"/>
<rect width="256" height="256" transform="translate(42 42)" fill="#5856D6"/>
<path d="M165.117 134.768C160.875 134.768 157.437 138.207 157.437 142.448V169.999H129.887C125.645 169.999 122.207 173.438 122.207 177.679C122.207 181.92 125.645 185.359 129.887 185.359H157.437V212.915C157.437 217.156 160.875 220.595 165.117 220.595C169.358 220.595 172.797 217.156 172.797 212.915V185.359H200.352C204.594 185.359 208.032 181.92 208.032 177.679C208.032 173.438 204.594 169.999 200.352 169.999H172.797V142.448C172.797 138.207 169.358 134.768 165.117 134.768Z" fill="white"/>
<path fill-rule="evenodd" clip-rule="evenodd" d="M121.6 100.88C121.6 88.1555 131.915 77.8401 144.64 77.8401H185.6C198.325 77.8401 208.64 88.1555 208.64 100.88V108.56H239.362C252.087 108.56 262.402 118.875 262.402 131.6V223.76C262.402 236.484 252.087 246.8 239.362 246.8H90.8801C78.1555 246.8 67.8401 236.484 67.8401 223.76V131.6C67.8401 118.875 78.1555 108.56 90.8801 108.56H121.6V100.88ZM193.28 100.88V108.56H136.96V100.88C136.96 96.6386 140.398 93.2001 144.64 93.2001H185.6C189.842 93.2001 193.28 96.6386 193.28 100.88ZM90.8801 123.92H239.362C243.604 123.92 247.042 127.359 247.042 131.6V223.76C247.042 228.001 243.604 231.44 239.362 231.44H90.8801C86.6385 231.44 83.2001 228.001 83.2001 223.76V131.6C83.2001 127.359 86.6385 123.92 90.8801 123.92Z" fill="white"/>
</g>
<defs>
<clipPath id="clip0_207_680">
<rect width="340" height="340" fill="white"/>
</clipPath>
</defs>
</svg>
