<svg width="80" height="80" viewBox="0 0 80 80" fill="none" xmlns="http://www.w3.org/2000/svg">
<path d="M23.9512 42.4999C23.9512 41.0273 25.1451 39.8333 26.6178 39.8333H26.6512C28.1239 39.8333 29.3178 41.0273 29.3178 42.4999C29.3178 43.9726 28.1239 45.1666 26.6512 45.1666H26.6178C25.1451 45.1666 23.9512 43.9726 23.9512 42.4999Z" fill="#1C1C1E"/>
<path d="M26.6178 53.1667C25.1451 53.1667 23.9512 54.3607 23.9512 55.8334C23.9512 57.3061 25.1451 58.5001 26.6178 58.5001H26.6512C28.1239 58.5001 29.3178 57.3061 29.3178 55.8334C29.3178 54.3607 28.1239 53.1667 26.6512 53.1667H26.6178Z" fill="#1C1C1E"/>
<path d="M37.3169 42.4999C37.3169 41.0273 38.5109 39.8333 39.9836 39.8333H40.0169C41.4896 39.8333 42.6836 41.0273 42.6836 42.4999C42.6836 43.9726 41.4896 45.1666 40.0169 45.1666H39.9836C38.5109 45.1666 37.3169 43.9726 37.3169 42.4999Z" fill="#1C1C1E"/>
<path d="M39.9836 53.1667C38.5109 53.1667 37.3169 54.3607 37.3169 55.8334C37.3169 57.3061 38.5109 58.5001 39.9836 58.5001H40.0169C41.4896 58.5001 42.6836 57.3061 42.6836 55.8334C42.6836 54.3607 41.4896 53.1667 40.0169 53.1667H39.9836Z" fill="#1C1C1E"/>
<path d="M50.6831 42.4999C50.6831 41.0273 51.8771 39.8333 53.3498 39.8333H53.3831C54.8558 39.8333 56.0498 41.0273 56.0498 42.4999C56.0498 43.9726 54.8558 45.1666 53.3831 45.1666H53.3498C51.8771 45.1666 50.6831 43.9726 50.6831 42.4999Z" fill="#1C1C1E"/>
<path d="M53.3498 53.1667C51.8771 53.1667 50.6831 54.3607 50.6831 55.8334C50.6831 57.3061 51.8771 58.5001 53.3498 58.5001H53.3831C54.8558 58.5001 56.0498 57.3061 56.0498 55.8334C56.0498 54.3607 54.8558 53.1667 53.3831 53.1667H53.3498Z" fill="#1C1C1E"/>
<path fill-rule="evenodd" clip-rule="evenodd" d="M29.1668 9.16675C29.1668 7.78605 28.0475 6.66675 26.6668 6.66675C25.2861 6.66675 24.1668 7.78605 24.1668 9.16675V12.5001H18.3335C14.1914 12.5001 10.8335 15.8579 10.8335 20.0001V63.3334C10.8335 67.4754 14.1914 70.8334 18.3335 70.8334H61.6668C65.8088 70.8334 69.1668 67.4754 69.1668 63.3334V20.0001C69.1668 15.8579 65.8088 12.5001 61.6668 12.5001H55.8335V9.16675C55.8335 7.78605 54.7142 6.66675 53.3335 6.66675C51.9528 6.66675 50.8335 7.78605 50.8335 9.16675V12.5001H29.1668V9.16675ZM64.1668 27.5001V20.0001C64.1668 18.6194 63.0475 17.5001 61.6668 17.5001H18.3335C16.9528 17.5001 15.8335 18.6194 15.8335 20.0001V27.5001H64.1668ZM15.8335 32.5001H64.1668V63.3334C64.1668 64.7141 63.0475 65.8334 61.6668 65.8334H18.3335C16.9528 65.8334 15.8335 64.7141 15.8335 63.3334V32.5001Z" fill="#1C1C1E"/>
</svg>
