<svg width="80" height="80" viewBox="0 0 80 80" fill="none" xmlns="http://www.w3.org/2000/svg">
<path d="M22.5 6.66663H41.1267C39.3423 8.09159 37.7757 9.77753 36.4843 11.6666H22.5C21.1193 11.6666 20 12.7859 20 14.1666V65.8333C20 67.214 21.1193 68.3333 22.5 68.3333H49.1667C50.5473 68.3333 51.6667 67.214 51.6667 65.8333V47.1946C52.887 47.3956 54.1397 47.5 55.4167 47.5C55.836 47.5 56.2527 47.4886 56.6667 47.4663V65.8333C56.6667 69.9753 53.3087 73.3333 49.1667 73.3333H22.5C18.3579 73.3333 15 69.9753 15 65.8333V14.1666C15 10.0245 18.3579 6.66663 22.5 6.66663Z" fill="#1C1C1E"/>
<path d="M32.5 58.3333C31.1193 58.3333 30 59.4526 30 60.8333C30 62.2139 31.1193 63.3333 32.5 63.3333H39.1667C40.5473 63.3333 41.6667 62.2139 41.6667 60.8333C41.6667 59.4526 40.5473 58.3333 39.1667 58.3333H32.5Z" fill="#1C1C1E"/>
<path d="M70.8335 38.0167C69.4528 38.0167 68.3335 36.8973 68.3335 35.5167V13.6499C68.3335 12.2692 69.4528 11.1499 70.8335 11.1499C72.2142 11.1499 73.3335 12.2692 73.3335 13.6499V35.5167C73.3335 36.8973 72.2142 38.0167 70.8335 38.0167Z" fill="#1C1C1E"/>
<path d="M58.0566 35.5167C58.0566 36.8974 59.176 38.0167 60.5566 38.0167C61.9373 38.0167 63.0566 36.8974 63.0566 35.5167V20.2102C63.0566 18.8295 61.9373 17.7102 60.5566 17.7102C59.176 17.7102 58.0566 18.8295 58.0566 20.2102V35.5167Z" fill="#1C1C1E"/>
<path d="M50.2778 38.0167C48.8972 38.0167 47.7778 36.8974 47.7778 35.5167V26.7703C47.7778 25.3896 48.8972 24.2703 50.2778 24.2703C51.6585 24.2703 52.7778 25.3896 52.7778 26.7703V35.5167C52.7778 36.8974 51.6585 38.0167 50.2778 38.0167Z" fill="#1C1C1E"/>
<path d="M40 38.0167C38.6193 38.0167 37.5 36.8974 37.5 35.5167V33.3303C37.5 31.9496 38.6193 30.8303 40 30.8303C41.3807 30.8303 42.5 31.9496 42.5 33.3303V35.5167C42.5 36.8974 41.3807 38.0167 40 38.0167Z" fill="#1C1C1E"/>
</svg>
