<svg width="80" height="80" viewBox="0 0 80 80" fill="none" xmlns="http://www.w3.org/2000/svg">
<path d="M38.5002 16.3447C39.3892 15.6781 40.6112 15.6781 41.5002 16.3447L63.1668 32.5947C63.6945 32.9905 64.0402 33.5753 64.1382 34.2177C65.9415 34.9603 67.6292 35.9263 69.1668 37.0813V34.5947C69.1668 32.234 68.0555 30.0111 66.1668 28.5947L44.5002 12.3447C41.8335 10.3447 38.1668 10.3447 35.5002 12.3447L13.8335 28.5947C11.945 30.0111 10.8335 32.234 10.8335 34.5947V61.666C10.8335 65.8083 14.1914 69.166 18.3335 69.166H37.0818C35.9328 67.6367 34.9708 65.9587 34.2298 64.166H18.3335C16.9528 64.166 15.8335 63.047 15.8335 61.666V34.5947C15.8335 33.808 16.204 33.0669 16.8335 32.5947L38.5002 16.3447Z" fill="#1C1C1E"/>
<path d="M69.0471 52.6336C61.5195 45.106 49.3141 45.106 41.7865 52.6336C40.8101 53.61 39.2271 53.61 38.2508 52.6336C37.2745 51.6573 37.2745 50.0746 38.2508 49.0983C47.7315 39.6176 63.1021 39.6176 72.5828 49.0983C73.5591 50.0746 73.5591 51.6573 72.5828 52.6336C71.6065 53.61 70.0235 53.61 69.0471 52.6336Z" fill="#1C1C1E"/>
<path d="M52.7476 66.3434C52.7476 64.8708 53.9416 63.6768 55.4142 63.6768C56.8869 63.6768 58.0842 64.8708 58.0842 66.3434C58.0842 67.8161 56.8902 69.0101 55.4176 69.0101C53.9449 69.0101 52.7476 67.8161 52.7476 66.3434Z" fill="#1C1C1E"/>
<path d="M49.0812 60.3326C52.6772 57.099 58.1552 57.099 61.7508 60.3326C62.7775 61.256 64.3582 61.172 65.2815 60.1453C66.2048 59.1186 66.1208 57.538 65.0942 56.615C59.5975 51.6716 51.2348 51.6716 45.7378 56.615C44.7115 57.538 44.6275 59.1186 45.5508 60.1453C46.4738 61.172 48.0545 61.256 49.0812 60.3326Z" fill="#1C1C1E"/>
</svg>
