<svg width="80" height="80" viewBox="0 0 80 80" fill="none" xmlns="http://www.w3.org/2000/svg">
<path d="M49.1668 13.3333C49.1668 12.543 48.7932 11.7993 48.1592 11.3275C47.5252 10.8558 46.7055 10.7116 45.9485 10.9387L16.1784 19.8697C13.006 20.8214 10.8335 23.7413 10.8335 27.0534V66.6666C10.8335 68.0473 11.9528 69.1666 13.3335 69.1666H37.0818C35.9328 67.6369 34.9712 65.9592 34.2298 64.1666H15.8335V27.0534C15.8335 25.9494 16.5577 24.9761 17.6151 24.6588L44.1668 16.6933V35.4466C45.7288 34.5649 47.4048 33.8609 49.1668 33.3626V13.3333Z" fill="#1C1C1E"/>
<path d="M32.4998 55.4167C32.4998 54.4267 32.5626 53.4514 32.6844 52.4944H26.6665C25.2858 52.4944 24.1665 53.6137 24.1665 54.9944C24.1665 56.3751 25.2858 57.4944 26.6665 57.4944H32.5927C32.5312 56.8101 32.4998 56.1171 32.4998 55.4167Z" fill="#1C1C1E"/>
<path d="M34.5502 45.9287C34.9278 45.0994 35.3535 44.2967 35.8235 43.5237C35.7118 42.2464 34.6395 41.2444 33.3332 41.2444H26.6665C25.2858 41.2444 24.1665 42.3637 24.1665 43.7444C24.1665 45.1251 25.2858 46.2444 26.6665 46.2444H33.3332C33.7748 46.2444 34.1898 46.1297 34.5502 45.9287Z" fill="#1C1C1E"/>
<path d="M26.6665 29.9944C25.2858 29.9944 24.1665 31.1137 24.1665 32.4944C24.1665 33.8751 25.2858 34.9944 26.6665 34.9944H33.3332C34.7138 34.9944 35.8332 33.8751 35.8332 32.4944C35.8332 31.1137 34.7138 29.9944 33.3332 29.9944H26.6665Z" fill="#1C1C1E"/>
<path d="M46.1462 50.3126C48.4472 50.3126 50.3128 48.4469 50.3128 46.1459C50.3128 43.8446 48.4472 41.9792 46.1462 41.9792C43.8448 41.9792 41.9795 43.8446 41.9795 46.1459C41.9795 48.4469 43.8448 50.3126 46.1462 50.3126Z" fill="#1C1C1E"/>
<path d="M42.7537 64.5439C41.7774 65.5203 41.7774 67.1033 42.7537 68.0796C43.7301 69.0559 45.3131 69.0559 46.2894 68.0796L68.0811 46.2879C69.0574 45.3116 69.0574 43.7286 68.0811 42.7523C67.1047 41.7759 65.5217 41.7759 64.5454 42.7523L42.7537 64.5439Z" fill="#1C1C1E"/>
<path d="M68.8538 64.6874C68.8538 66.9888 66.9885 68.8541 64.6872 68.8541C62.3862 68.8541 60.5205 66.9888 60.5205 64.6874C60.5205 62.3864 62.3862 60.5208 64.6872 60.5208C66.9885 60.5208 68.8538 62.3864 68.8538 64.6874Z" fill="#1C1C1E"/>
</svg>
