<svg width="80" height="80" viewBox="0 0 80 80" fill="none" xmlns="http://www.w3.org/2000/svg">
<path fill-rule="evenodd" clip-rule="evenodd" d="M65.4512 53.6506H65.8332C69.9752 53.6506 73.3332 50.2929 73.3332 46.1506V42.0666C73.3332 38.5276 70.8592 35.4699 67.3978 34.7316L60.4025 33.2393L50.7012 22.8912C49.2832 21.3788 47.3025 20.5208 45.2295 20.5208H26.5883C24.1186 20.5208 21.8072 21.7366 20.408 23.7718L15.314 31.1813L10.1616 34.4356C7.9858 35.8096 6.6665 38.2033 6.6665 40.7766V46.1506C6.6665 50.2929 10.0244 53.6506 14.1665 53.6506H14.5485C15.6109 57.0306 18.7691 59.4823 22.4998 59.4823C26.2306 59.4823 29.3888 57.0306 30.4512 53.6506H49.5485C50.6108 57.0306 53.7692 59.4823 57.4998 59.4823C61.2305 59.4823 64.3888 57.0306 65.4512 53.6506ZM26.5883 25.5208C25.7651 25.5208 24.9946 25.9261 24.5282 26.6044L21.1507 31.5172L25.8461 32.768C26.476 32.9358 27.125 33.0208 27.7768 33.0208H33.1769V25.5208H26.5883ZM38.1768 25.5208V33.0208H53.3438L47.0535 26.3109C46.5808 25.8068 45.9205 25.5208 45.2295 25.5208H38.1768ZM58.8508 38.0206H27.7768C26.6904 38.0206 25.6088 37.8793 24.559 37.5996L17.4948 35.7176L12.8315 38.6629C12.1063 39.1209 11.6665 39.9189 11.6665 40.7766V46.1506C11.6665 47.5312 12.7858 48.6506 14.1665 48.6506H14.5475C15.6089 45.2689 18.7679 42.8156 22.4998 42.8156C26.2318 42.8156 29.3908 45.2689 30.4522 48.6506H49.5475C50.6088 45.2689 53.7678 42.8156 57.4998 42.8156C61.2318 42.8156 64.3908 45.2689 65.4522 48.6506H65.8332C67.2138 48.6506 68.3332 47.5312 68.3332 46.1506V42.0666C68.3332 40.8869 67.5085 39.8676 66.3548 39.6216L58.8508 38.0206ZM60.8332 51.1489C60.8332 49.3079 59.3408 47.8156 57.4998 47.8156C55.6588 47.8156 54.1665 49.3079 54.1665 51.1489C54.1665 52.9899 55.6588 54.4823 57.4998 54.4823C59.3408 54.4823 60.8332 52.9899 60.8332 51.1489ZM22.4998 47.8156C20.6589 47.8156 19.1665 49.3079 19.1665 51.1489C19.1665 52.9899 20.6589 54.4823 22.4998 54.4823C24.3408 54.4823 25.8332 52.9899 25.8332 51.1489C25.8332 49.3079 24.3408 47.8156 22.4998 47.8156Z" fill="#1C1C1E"/>
</svg>
