<svg width="340" height="340" viewBox="0 0 340 340" fill="none" xmlns="http://www.w3.org/2000/svg">
<g clip-path="url(#clip0_207_771)">
<path d="M5.82863 87.489C11.783 44.1069 44.1069 10.9324 87.489 5.82863C142.222 -1.94288 197.778 -1.94288 252.511 5.82863C295.893 11.783 329.068 44.1069 334.171 87.489C341.943 142.222 341.943 197.778 334.171 252.511C328.217 295.893 295.893 329.068 252.511 334.171C197.778 341.943 142.222 341.943 87.489 334.171C44.1069 328.217 10.9324 295.893 5.82863 252.511C-1.94288 197.778 -1.94288 142.222 5.82863 87.489Z" fill="#E6E8EC"/>
<path d="M199.333 84.6667C199.333 82.1379 198.138 79.7579 196.109 78.2484C194.08 76.7388 191.457 76.2774 189.035 77.0041L93.7704 105.583C83.6187 108.629 76.6667 117.973 76.6667 128.571V255.333C76.6667 259.751 80.2485 263.333 84.6667 263.333H160.661C156.985 258.438 153.907 253.07 151.535 247.333H92.6667V128.571C92.6667 125.038 94.9841 121.924 98.368 120.909L183.333 95.4189V155.429C188.332 152.608 193.695 150.355 199.333 148.76V84.6667Z" fill="#64646D"/>
<path d="M146 219.333C146 216.165 146.201 213.044 146.591 209.982H127.333C122.915 209.982 119.333 213.564 119.333 217.982C119.333 222.4 122.915 225.982 127.333 225.982H146.297C146.1 223.792 146 221.574 146 219.333Z" fill="#64646D"/>
<path d="M152.561 188.972C153.77 186.318 155.132 183.749 156.636 181.276C156.278 177.188 152.847 173.982 148.667 173.982H127.333C122.915 173.982 119.333 177.564 119.333 181.982C119.333 186.4 122.915 189.982 127.333 189.982H148.667C150.08 189.982 151.408 189.615 152.561 188.972Z" fill="#64646D"/>
<path d="M127.333 137.982C122.915 137.982 119.333 141.563 119.333 145.982C119.333 150.4 122.915 153.982 127.333 153.982H148.667C153.085 153.982 156.667 150.4 156.667 145.982C156.667 141.563 153.085 137.982 148.667 137.982H127.333Z" fill="#64646D"/>
<path d="M219.333 194.031C223.751 194.031 227.333 197.613 227.333 202.031V215.199H236.656C241.074 215.199 244.656 218.781 244.656 223.199C244.656 227.618 241.074 231.199 236.656 231.199H219.333C214.915 231.199 211.333 227.618 211.333 223.199V202.031C211.333 197.613 214.915 194.031 219.333 194.031Z" fill="#64646D"/>
<path fill-rule="evenodd" clip-rule="evenodd" d="M162 219.333C162 187.669 187.669 162 219.333 162C250.997 162 276.667 187.669 276.667 219.333C276.667 250.997 250.997 276.667 219.333 276.667C187.669 276.667 162 250.997 162 219.333ZM219.333 178C196.506 178 178 196.506 178 219.333C178 242.161 196.506 260.667 219.333 260.667C242.161 260.667 260.667 242.161 260.667 219.333C260.667 196.506 242.161 178 219.333 178Z" fill="#64646D"/>
</g>
<defs>
<clipPath id="clip0_207_771">
<rect width="340" height="340" fill="white"/>
</clipPath>
</defs>
</svg>
