<svg width="80" height="80" viewBox="0 0 80 80" fill="none" xmlns="http://www.w3.org/2000/svg">
<path d="M38.4739 28.9902C37.1484 28.9902 36.0739 30.0648 36.0739 31.3902V39.9998H27.4645C26.139 39.9998 25.0645 41.0744 25.0645 42.3998C25.0645 43.7252 26.139 44.7998 27.4645 44.7998H36.0739V53.411C36.0739 54.7364 37.1484 55.811 38.4739 55.811C39.7993 55.811 40.8739 54.7364 40.8739 53.411V44.7998H49.4851C50.8105 44.7998 51.8851 43.7252 51.8851 42.3998C51.8851 41.0744 50.8105 39.9998 49.4851 39.9998H40.8739V31.3902C40.8739 30.0648 39.7993 28.9902 38.4739 28.9902Z" fill="#1C1C1E"/>
<path fill-rule="evenodd" clip-rule="evenodd" d="M24.8752 18.4C24.8752 14.4235 28.0987 11.2 32.0751 11.2H44.8751C48.8517 11.2 52.0751 14.4235 52.0751 18.4V20.8H61.6757C65.6523 20.8 68.8757 24.0235 68.8757 28V56.8C68.8757 60.7763 65.6523 64 61.6757 64H15.2752C11.2987 64 8.0752 60.7763 8.0752 56.8V28C8.0752 24.0235 11.2987 20.8 15.2752 20.8H24.8752V18.4ZM47.2751 18.4V20.8H29.6752V18.4C29.6752 17.0745 30.7497 16 32.0751 16H44.8751C46.2008 16 47.2751 17.0745 47.2751 18.4ZM15.2752 25.6H61.6757C63.0015 25.6 64.0757 26.6745 64.0757 28V56.8C64.0757 58.1254 63.0015 59.2 61.6757 59.2H15.2752C13.9497 59.2 12.8752 58.1254 12.8752 56.8V28C12.8752 26.6745 13.9497 25.6 15.2752 25.6Z" fill="#1C1C1E"/>
</svg>
