<svg width="80" height="80" viewBox="0 0 80 80" fill="none" xmlns="http://www.w3.org/2000/svg">
<path fill-rule="evenodd" clip-rule="evenodd" d="M24.9186 22.4H19.6077C15.6313 22.4 12.4077 25.6236 12.4077 29.6V62.4C12.4077 66.3763 15.6313 69.6 19.6077 69.6H61.2607C65.2373 69.6 68.4607 66.3763 68.4607 62.4V29.6C68.4607 25.6236 65.2373 22.4 61.2607 22.4H55.95C56.7669 20.988 57.2341 19.3486 57.2341 17.6C57.2341 12.2981 52.9362 8 47.6341 8C44.7669 8 42.1932 9.25702 40.4341 11.25C38.6751 9.25702 36.1017 8 33.2341 8C27.9324 8 23.6343 12.2981 23.6343 17.6C23.6343 19.3486 24.1018 20.988 24.9186 22.4ZM47.6341 12.8C44.9833 12.8 42.8341 14.949 42.8341 17.6V22.4H47.6341C50.2853 22.4 52.4341 20.251 52.4341 17.6C52.4341 14.949 50.2853 12.8 47.6341 12.8ZM42.8341 34.4V27.2H61.2607C62.5861 27.2 63.6607 28.2745 63.6607 29.6V34.4H42.8341ZM38.0341 34.4V27.2H19.6077C18.2822 27.2 17.2077 28.2745 17.2077 29.6V34.4H38.0341ZM17.2077 39.2H38.0341V64.8H19.6077C18.2822 64.8 17.2077 63.7254 17.2077 62.4V39.2ZM42.8341 39.2H63.6607V62.4C63.6607 63.7254 62.5861 64.8 61.2607 64.8H42.8341V39.2ZM33.2341 22.4H38.0341V17.6C38.0341 14.949 35.8853 12.8 33.2341 12.8C30.5833 12.8 28.4343 14.949 28.4343 17.6C28.4343 20.251 30.5833 22.4 33.2341 22.4Z" fill="#1C1C1E"/>
</svg>
