<svg width="80" height="80" viewBox="0 0 80 80" fill="none" xmlns="http://www.w3.org/2000/svg">
<path d="M60.017 29.855C60.017 28.3148 59.1351 26.8509 57.5482 25.5288C59.6186 25.2068 61.4532 24.7443 62.9582 24.1869C64.4618 23.6299 65.5114 23.0242 66.1409 22.4729C66.4484 22.2037 66.6103 21.987 66.69 21.8428C66.763 21.7106 66.7633 21.6486 66.7633 21.6346C66.7633 21.6205 66.763 21.5585 66.69 21.4263C66.6103 21.2821 66.4484 21.0654 66.1409 20.7963C65.5114 20.245 64.4618 19.6392 62.9582 19.0822C59.969 17.9751 55.6791 17.2421 50.8238 17.2421C45.9681 17.2421 41.6785 17.9751 38.6894 19.0822C38.3476 19.2087 38.0295 19.3378 37.7345 19.4681C35.6458 19.2896 33.4708 19.1953 31.2359 19.1953C31.0589 19.1953 30.8823 19.1959 30.7061 19.1971C31.1221 18.4146 31.7083 17.7419 32.3444 17.1851C33.5706 16.1111 35.2071 15.2532 37.0222 14.581C40.6705 13.2297 45.5505 12.4421 50.8238 12.4421C56.0967 12.4421 60.9767 13.2297 64.6254 14.581C66.4401 15.2532 68.0766 16.1111 69.3031 17.1851C70.5249 18.2549 71.5633 19.7519 71.5633 21.6346V42.0118C71.5633 42.1225 71.5594 42.2316 71.5527 42.3398C68.9921 38.9568 65.4759 36.3372 61.4062 34.8825C61.9556 34.7244 62.474 34.5548 62.9582 34.3756C64.4618 33.8185 65.5114 33.2128 66.1409 32.6614C66.4484 32.3923 66.6103 32.1756 66.69 32.0313C66.763 31.8992 66.7633 31.8372 66.7633 31.8232V27.7597C66.0916 28.1022 65.3735 28.4109 64.6254 28.6881C63.2494 29.1977 61.6983 29.6271 60.017 29.9643V29.855Z" fill="#1C1C1E"/>
<path d="M31.2002 68.8048C32.9256 68.8048 34.6133 68.7328 36.2428 68.5946C35.1973 67.1683 34.3199 65.6109 33.6389 63.9523C32.8412 63.9869 32.0274 64.0048 31.2002 64.0048C25.4443 64.0048 20.3394 63.1367 16.7602 61.8112C14.9614 61.145 13.6733 60.409 12.8787 59.7133C12.0794 59.0135 12.0002 58.5648 12.0002 58.4048V52.9072C12.9424 53.4349 13.9854 53.9021 15.0931 54.3123C19.3316 55.8823 25.0268 56.8048 31.2002 56.8048C31.4785 56.8048 31.7558 56.8029 32.0322 56.7994C32.0108 56.4039 32.0002 56.0058 32.0002 55.6048C32.0002 54.3751 32.101 53.169 32.2949 51.9943C31.9329 52.0013 31.5679 52.0048 31.2002 52.0048C25.4443 52.0048 20.3394 51.1367 16.7602 49.8112C14.9614 49.145 13.6733 48.409 12.8787 47.7133C12.0794 47.0135 12.0002 46.5648 12.0002 46.4048V40.9072C12.9424 41.4349 13.9854 41.9021 15.0931 42.3123C19.3316 43.8823 25.0268 44.8048 31.2002 44.8048C32.4533 44.8048 33.6869 44.7667 34.8927 44.6931C36.0175 42.7277 37.4367 40.9527 39.0901 39.4279C36.6853 39.7965 34.021 40.0048 31.2002 40.0048C25.4443 40.0048 20.3394 39.1367 16.7602 37.8112C14.9614 37.145 13.6733 36.409 12.8787 35.7133C12.0794 35.0135 12.0002 34.5648 12.0002 34.4048C12.0002 34.2451 12.0794 33.7965 12.8787 33.0967C13.6733 32.4007 14.9614 31.6649 16.7602 30.9986C20.3394 29.673 25.4443 28.8049 31.2002 28.8049C36.956 28.8049 42.061 29.673 45.6402 30.9986C47.4389 31.6649 48.7272 32.4007 49.5218 33.0967C49.9039 33.4314 50.1215 33.7085 50.2444 33.9242C51.4648 33.7143 52.7199 33.6048 54.0002 33.6048C54.3845 33.6048 54.7666 33.6147 55.1461 33.6343C54.9055 31.9371 53.8924 30.5436 52.6837 29.4853C51.2924 28.2669 49.4172 27.2789 47.3074 26.4975C43.0687 24.9276 37.3736 24.0049 31.2002 24.0049C25.0268 24.0049 19.3316 24.9276 15.0931 26.4975C12.9832 27.2789 11.108 28.2669 9.71655 29.4853C8.3298 30.6997 7.2002 32.3555 7.2002 34.4048V58.4048C7.2002 60.4541 8.3298 62.1101 9.71655 63.3245C11.108 64.5431 12.9832 65.5309 15.0931 66.3123C19.3316 67.8823 25.0268 68.8048 31.2002 68.8048Z" fill="#1C1C1E"/>
<path d="M56.403 40.8048C56.403 39.4793 55.3285 38.4048 54.003 38.4048C52.6776 38.4048 51.603 39.4793 51.603 40.8048V42.9485C51.603 42.9763 51.6034 43.0041 51.6043 43.0317C45.8392 44.3097 41.5278 49.4525 41.5278 55.6019C41.5278 61.7517 45.8395 66.8944 51.6046 68.1725C51.6033 68.2019 51.603 68.2313 51.603 68.2608V70.4048C51.603 71.7302 52.6776 72.8048 54.003 72.8048C55.3285 72.8048 56.403 71.7302 56.403 70.4048V68.3232C61.2254 67.5712 65.1618 64.1427 66.6446 59.6048H61.4187C60.0277 62.0377 57.4069 63.6774 54.4034 63.6774C49.9435 63.6774 46.3278 60.0621 46.3278 55.6019C46.3278 51.1421 49.9435 47.5267 54.4034 47.5267C57.4091 47.5267 60.0312 49.1686 61.4219 51.6048H66.6462C65.1646 47.064 61.2274 43.6329 56.403 42.8809V40.8048Z" fill="#1C1C1E"/>
</svg>
