<svg width="80" height="80" viewBox="0 0 80 80" fill="none" xmlns="http://www.w3.org/2000/svg">
<path fill-rule="evenodd" clip-rule="evenodd" d="M25.8335 24.9999C25.8335 17.1759 32.1761 10.8333 40.0002 10.8333C47.8242 10.8333 54.1668 17.1759 54.1668 24.9999C54.1668 32.824 47.8242 39.1666 40.0002 39.1666C32.1761 39.1666 25.8335 32.824 25.8335 24.9999ZM40.0002 15.8333C34.9375 15.8333 30.8335 19.9373 30.8335 24.9999C30.8335 30.0625 34.9375 34.1666 40.0002 34.1666C45.0628 34.1666 49.1668 30.0625 49.1668 24.9999C49.1668 19.9373 45.0628 15.8333 40.0002 15.8333Z" fill="#1C1C1E"/>
<path fill-rule="evenodd" clip-rule="evenodd" d="M9.1665 53.737C9.1665 45.913 15.5091 39.5703 23.3332 39.5703C31.1572 39.5703 37.4998 45.913 37.4998 53.737C37.4998 61.561 31.1572 67.9036 23.3332 67.9036C15.5091 67.9036 9.1665 61.561 9.1665 53.737ZM23.3332 44.5703C18.2706 44.5703 14.1665 48.6743 14.1665 53.737C14.1665 58.7996 18.2706 62.9036 23.3332 62.9036C28.3958 62.9036 32.4998 58.7996 32.4998 53.737C32.4998 48.6743 28.3958 44.5703 23.3332 44.5703Z" fill="#1C1C1E"/>
<path fill-rule="evenodd" clip-rule="evenodd" d="M56.6667 39.5703C48.8427 39.5703 42.5 45.913 42.5 53.737C42.5 61.561 48.8427 67.9036 56.6667 67.9036C64.4907 67.9036 70.8333 61.561 70.8333 53.737C70.8333 45.913 64.4907 39.5703 56.6667 39.5703ZM47.5 53.737C47.5 48.6743 51.604 44.5703 56.6667 44.5703C61.7293 44.5703 65.8333 48.6743 65.8333 53.737C65.8333 58.7996 61.7293 62.9036 56.6667 62.9036C51.604 62.9036 47.5 58.7996 47.5 53.737Z" fill="#1C1C1E"/>
</svg>
